<?xml version="1.0" encoding="utf-8"?>
<!-- Generator: Adobe Illustrator 16.0.4, SVG Export Plug-In . SVG Version: 6.00 Build 0)  -->
<!DOCTYPE svg PUBLIC "-//W3C//DTD SVG 1.1//EN" "http://www.w3.org/Graphics/SVG/1.1/DTD/svg11.dtd">
<svg version="1.1" id="Calque_1" xmlns="http://www.w3.org/2000/svg" xmlns:xlink="http://www.w3.org/1999/xlink" x="0px" y="0px"
	 width="128px" height="128px" viewBox="0 0 128 128" enable-background="new 0 0 128 128" xml:space="preserve">
<g>
	<g>
		<path fill="#FEFEFE" d="M1,64.5C1,44.333,1.052,24.166,0.934,4C0.919,1.499,1.5,0.931,4,0.936c40.667,0.091,81.333,0.091,122,0
			c2.5-0.005,3.069,0.564,3.064,3.064c-0.091,40.667-0.091,81.333,0,122c0.005,2.5-0.564,3.069-3.064,3.064
			c-40.667-0.091-81.333-0.091-122,0c-2.5,0.005-3.08-0.563-3.066-3.064C1.051,105.5,1,85,1,64.5z"/>
		<path fill-rule="evenodd" clip-rule="evenodd" fill="#F1F1F1" d="M106.024,99.971c1.494,0.036,3.032-0.141,4.473,0.155
			c2.449,0.502,4.004,2.431,5.096,4.435c1.156,2.125-0.974,3.266-2.186,4.503c-8.439,8.619-19.646,11.412-30.782,13.706
			c-17.219,3.546-34.515,3.119-51.498-1.802c-7.463-2.162-14.612-4.777-18.843-12.398c-1.568-2.825-0.636-3.914,1.024-5.304
			c3.366-2.816,7.415-3.49,11.673-3.287c0.313,2.08-1.61,2.007-2.657,2.781c-6.103,3.086-6.33,5.072-1.091,9.405
			c2.705,2.236,5.798,3.708,9.126,4.745c0.472,0.12,0.927,0.276,1.383,0.44c3.75,1.52,7.854,1.668,11.648,3.01
			c9.386,1.038,18.761,2.276,28.175,0.333c3.695,0.152,7.266-0.585,10.799-1.551c3.495-1.239,7.132-2.021,10.633-3.247
			c0.918-0.271,1.842-0.526,2.793-0.653c3.931-0.021,6.736-2.685,9.997-4.275c1.247-0.454,2.274-1.227,3.165-2.195
			c2.157-2.348,2.697-4.421-0.822-6.063C107.058,102.208,105.557,101.773,106.024,99.971z"/>
		<path fill-rule="evenodd" clip-rule="evenodd" fill="#A1A3A6" d="M105.042,27.02c0.002,1.342,0.003,2.684,0.004,4.024
			c-4.807-0.502-9.344,1.209-14.031,1.716c-0.751,0.11-1.5,0.099-2.249-0.012c-2.05-0.685-3.927,0.147-5.76,0.796
			c-7.939,2.811-16.324,3.906-24.334,6.427c-1.234,0.389-2.256,0.149-3.167-0.735c-1.226-1.622-1.84-3.372-1.135-5.398
			c3.518-2.457,7.807-2.479,11.744-3.415c11.341-2.698,22.643-5.539,33.949-8.369c1.575-0.394,3.186-1.086,4.759,0.046
			c0.131,0.304,0.164,0.617,0.1,0.941C104.242,24.389,103.854,25.728,105.042,27.02z"/>
		<path fill-rule="evenodd" clip-rule="evenodd" fill="#080A08" d="M29.867,26.962c0.497-0.608,0.993-1.217,1.489-1.826
			c0.477-0.725,1.199-1.048,2.007-1.234c2.943-0.275,5.882-0.496,8.469,1.391c0.39,0.342,0.663,0.768,0.823,1.261
			c0.66,3.259-2.99,4.093-3.7,6.581c-0.929,1.899-0.94,3.787,0.081,5.664c0.673,1.312,1.109,2.667,0.837,4.167
			c-0.73,2.304-2.149,3.927-4.543,4.581c-0.746,0.029-1.415-0.211-2.037-0.596c-2.084-1.459-4.112-3.05-6.826-3.197
			c-0.385-0.666-0.434-1.41-0.535-2.146c-0.409-2.085-0.272-4.181-0.187-6.275C26.295,32.136,27.384,29.205,29.867,26.962z"/>
		<path fill-rule="evenodd" clip-rule="evenodd" fill="#BEC0C2" d="M104.821,22.099c-15.026,3.837-30.047,7.694-45.087,11.475
			c-1.517,0.381-3.151,0.293-4.73,0.423c-1.583,0.173-1.685-0.985-1.869-2.071c0.162-2.531,2.125-3.215,4.061-3.765
			c9.121-2.59,18.255-5.132,27.649-6.573c1.716-0.254,3.416,0.188,5.128,0.114c2.319,0.051,4.649,0.167,6.688-1.268
			c1.479-0.558,3-0.998,4.494-1.518C102.376,19.977,103.599,21.038,104.821,22.099z"/>
		<path fill-rule="evenodd" clip-rule="evenodd" fill="#C4C4C4" d="M112.93,47.156c2.527,1.044,3.132,3.058,3.107,5.605
			c-0.101,10.421-0.097,20.843-0.132,31.265c-5.437,2.54-11.408,2.771-17.156,3.98c-3.769,0.368-7.543,0.894-11.259-0.358
			c-0.548-0.321-0.796-0.802-0.745-1.434c0.681-1.062,1.771-1.31,2.906-1.462c2.573-0.243,5.196,0.244,7.739-0.496
			c0.474-0.143,0.961-0.238,1.449-0.313c1.638-0.226,3.322-0.139,4.914-0.704c1.104-0.317,2.204-0.645,3.293-1.014
			c1.76-0.495,3.693-0.795,3.534-3.341c0.077-7.65-0.012-15.287,0.029-22.921c0.103-2.409-0.194-4.815-0.106-7.229
			C110.702,47.276,112.148,47.729,112.93,47.156z"/>
		<path fill-rule="evenodd" clip-rule="evenodd" fill="#E6E6E7" d="M21.993,101.992c0.996-0.671,1.993-1.343,2.989-2.014
			c0.017-18.332,0.035-36.664,0.052-54.996c3.237,0.506,3.248,3.332,4.043,5.598c0.204,1.41,0.166,2.866,0.772,4.207
			c0.375,0.908,0.77,1.807,1.049,2.753c0.342,1.256,0.405,2.541,0.433,3.831c-0.052,2.642,0.193,5.296-0.318,7.92
			c-0.315,1.281-0.77,2.518-1.211,3.761c-0.381,0.979-0.844,1.919-1.355,2.836c-1.835,7.117-1.616,14.243-0.142,21.373
			c0.82,2.097,1.743,4.166,1.858,6.467c-0.836,1.422-2.057,2.019-3.691,1.715c-0.411-0.184-0.78-0.442-1.102-0.758
			C24.619,103.329,22.898,103.17,21.993,101.992z"/>
		<path fill-rule="evenodd" clip-rule="evenodd" fill="#A4A6A7" d="M71.945,9.937c4.332-3.664,8.165-8.104,14.901-6.987
			c5.385,0.894,9.928,2.606,12.165,8.047c-0.377,0.913-0.794,1.812-1.014,2.788c-0.158,0.644-0.409,1.239-0.807,1.775
			c-3.47,2.387-7.488,3.722-11.104,5.827c-0.479,0.052-0.919-0.059-1.309-0.348c-0.938-3.49,2.138-3.878,4.003-5.263
			c1.84-1.366,5.066-1.117,5.243-4.424c-0.996-2.117-2.959-2.918-4.96-3.668c-4.54-1.231-8.287,0.887-12.133,2.746
			C73.976,11.86,73.934,11.772,71.945,9.937z"/>
		<path fill-rule="evenodd" clip-rule="evenodd" fill="#B4B6B8" d="M71.945,9.937c3.352,1.708,5.323-1.402,7.807-2.424
			c3.469-1.428,6.723-2.449,10.264-0.544c-0.869,3.124-3.932,3.238-6.172,4.444c-2.479,1.333-5.088,2.415-7.541,3.807
			c-1.001,0.33-1.853-0.055-2.682-0.554c-1.157-1.075-2.901-1.367-3.797-2.803C70.531,11.222,71.238,10.579,71.945,9.937z"/>
		<path fill-rule="evenodd" clip-rule="evenodd" fill="#EAEAEB" d="M31.953,21.966c6.118-4.162,13.564-3.782,20.297-5.871
			c5.502-1.707,11.217-2.73,16.837-4.057c0.556,1.217,3.713-0.699,2.781,2.312c-0.867,0.684-1.896,0.866-2.951,0.967
			c-8.708,1.53-17.394,3.15-25.688,6.355c-1.245,0.482-2.548,0.604-3.865,0.645c-2.062-0.218-4.052,0.616-6.114,0.448
			C32.728,22.644,32.296,22.376,31.953,21.966z"/>
		<path fill-rule="evenodd" clip-rule="evenodd" fill="#BCBEC0" d="M91.013,32.155c4.66-0.593,9.027-4.886,14.033-1.111
			c-0.009,1.32-0.017,2.64-0.025,3.959c-0.349,0.334-0.762,0.444-1.232,0.369c-3.594-1.309-7.087,1.825-10.693,0.258
			C91.799,34.832,90.646,33.945,91.013,32.155z"/>
		<path fill-rule="evenodd" clip-rule="evenodd" fill="#E8E8E8" d="M106.024,99.971c0.346,0.347,0.646,0.766,1.047,1.027
			c1.906,1.242,5.331,0.919,4.895,4.573c-0.423,3.532-2.727,5.445-5.968,6.426c-0.35-0.32-0.599-0.704-0.734-1.16
			c-0.058-0.466-0.031-0.927,0.081-1.384c0.172-0.436,0.418-0.825,0.735-1.169c2.783-2.201,1.425-3.627-0.921-4.867
			c-0.58-0.514-0.945-1.155-1.164-1.893c-0.499-2.327-0.234-4.688-0.346-7.034c-0.046-0.532-0.042-1.062-0.019-1.595
			c0.131-1.598-0.008-3.254,0.967-4.676c0.432-0.446,0.908-0.5,1.43-0.162C106.026,92.029,106.025,96,106.024,99.971z"/>
		<path fill-rule="evenodd" clip-rule="evenodd" fill="#D0D0D0" d="M28.069,51.096c-0.444-2.319-1.425-4.373-3.035-6.113
			c-0.041-0.981-0.082-1.962-0.123-2.942c-0.619-2.691-0.683-5.38,0.045-8.063c1.089-2.723,1.191-6.135,4.911-7.015
			c-0.742,2.646-3.371,4.539-3.038,7.614c-0.498,2.581-0.604,5.161,0.035,7.738c0.06,0.56,0.119,1.119,0.179,1.68
			c0.586,0.672,1.311,1.228,1.729,2.044c0.638,2.099,3.004,3.587,2.208,6.196C29.581,52.95,28.74,52.238,28.069,51.096z"/>
		<path fill-rule="evenodd" clip-rule="evenodd" fill="#B6B6B8" d="M106.027,88.058l-0.481-0.025l-0.479,0.044
			c-0.628,0.035-1.254,0.113-1.886,0.07c-1.277-0.086-2.59,0.008-3.763-0.667c-0.145-0.162-0.286-0.326-0.429-0.49
			c5.586-1.29,11.084-3.085,16.916-2.964c-0.015,0.672-0.03,1.344-0.045,2.016c-1.719,0.933-3.698,0.138-5.476,0.68
			c-0.63,0.284,0.288,1.004-0.028,0.418c-0.14-0.259-0.069-0.403,0.213-0.438c1.559-0.19,3.137-0.603,4.595,0.393
			C112.282,88.969,109.036,87.393,106.027,88.058z"/>
		<path fill-rule="evenodd" clip-rule="evenodd" fill="#909294" d="M84.912,20.865c0.357,0.036,0.714,0.073,1.071,0.109
			c3.377-2.529,7.771-3.188,11.003-5.985c0.006-0.662,0.013-1.324,0.02-1.986c0.972-1.46,1.947-1.684,2.929-0.009
			c-0.011,0.679-0.021,1.356-0.031,2.035c-1.005,3.672-4.138,4.964-7.14,6.404c-0.894,0.509-2.006,0.621-2.707,1.487
			c-1.779-0.179-3.559-0.358-5.338-0.537c-0.727-0.165-1.02-0.621-0.908-1.35C84.138,20.72,84.503,20.65,84.912,20.865z"/>
		<path fill-rule="evenodd" clip-rule="evenodd" fill="#757678" d="M91.913,20.94c2.663-1.971,5.327-3.94,7.99-5.911
			c0.339,0.992,1.469,1.73,0.958,2.994c-1.45,2.265-4.153,2.435-6.197,3.714C93.616,21.923,92.643,21.85,91.913,20.94z"/>
		<path fill-rule="evenodd" clip-rule="evenodd" fill="#C3C3C6" d="M104.013,34.993c0.336,0.003,0.672,0.007,1.008,0.01
			c0.517,3.98-0.834,8.117,1.006,11.985c-0.456,0.369-0.975,0.519-1.558,0.448c-0.561-0.188-0.968-0.547-1.229-1.075
			c-0.899-3.317-0.741-6.658-0.206-10.009C103.229,35.806,103.558,35.354,104.013,34.993z"/>
		<path fill-rule="evenodd" clip-rule="evenodd" fill="#616365" d="M94.979,21c1.961-0.992,3.922-1.984,5.883-2.977
			c0.113,0.292,0.211,0.59,0.292,0.893c-0.372,2.57-2.419,1.962-4.053,2.136C96.381,21.555,95.671,21.644,94.979,21z"/>
		<path fill-rule="evenodd" clip-rule="evenodd" fill="#E3E4E4" d="M31.953,21.966c0.363,0.018,0.726,0.036,1.089,0.054
			c0.286,0.271,0.496,0.591,0.646,0.955c0.072,0.388,0.068,0.774-0.007,1.161c-0.167,0.354-0.396,0.666-0.678,0.939
			c-0.548,0.021-1.097,0.041-1.646,0.061c-0.679-0.202-1.765,0.025-1.627-1.152C29.874,22.756,30.691,22.065,31.953,21.966z"/>
		<path fill-rule="evenodd" clip-rule="evenodd" fill="#E6E6E7" d="M24.956,33.977c-0.015,2.688-0.029,5.375-0.044,8.063
			C23.536,39.345,23.463,36.656,24.956,33.977z"/>
		<path fill-rule="evenodd" clip-rule="evenodd" fill="#C0C0C0" d="M104.979,47.023c0.349-0.012,0.698-0.023,1.047-0.034
			c2.302,0.055,4.604,0.11,6.904,0.166c-0.646,0.284-1.29,0.566-1.936,0.849c-1.759,1.572-3.668,1.455-5.653,0.508
			C104.807,48.118,104.686,47.62,104.979,47.023z"/>
		<path fill-rule="evenodd" clip-rule="evenodd" fill="#A3A3A3" d="M115.164,87.094c-1.684-0.374-3.513,0.389-5.967-1.053
			c2.789,0,4.727,0,6.663,0C115.628,86.392,115.396,86.743,115.164,87.094z"/>
		<path fill-rule="evenodd" clip-rule="evenodd" fill="#97999C" d="M72.192,13.885c-0.72-1.146-2.567-0.396-3.105-1.847
			c0.248-0.047,0.494-0.105,0.737-0.174c1.627,0.028,3.188,0.203,4.101,1.832C73.432,14.525,72.839,14.455,72.192,13.885z"/>
		<path fill-rule="evenodd" clip-rule="evenodd" fill="#999B9C" d="M99.935,12.994c-0.979-0.648-1.954-0.591-2.929,0.009
			c0.021-1.315,0.707-1.968,2.006-2.007C99.319,11.662,99.627,12.328,99.935,12.994z"/>
		<path fill-rule="evenodd" clip-rule="evenodd" fill="#949698" d="M105.042,27.02c-2.548-1.25-1.503-2.61-0.121-3.98
			C104.961,24.366,105.002,25.693,105.042,27.02z"/>
		<path fill-rule="evenodd" clip-rule="evenodd" fill="#CFCFCF" d="M93.999,116.97c-3.66,1.02-7.321,2.04-10.981,3.06
			c-3.726,0.452-7.364,1.561-11.163,1.455c-5.558,1.041-11.171,1.15-16.797,0.988c-1.109-0.032-2.358,0.367-3.211-0.781
			c-0.027-1.503,1.146-1.921,2.2-2.449c7.518-0.613,15.089-0.266,22.598-1.461c3.772-0.602,7.416-1.493,11.044-2.599
			c2.014-0.613,4.021-1.695,6.203-0.528C94.639,115.393,94.568,116.17,93.999,116.97z"/>
		<path fill-rule="evenodd" clip-rule="evenodd" fill="#DCDCDC" d="M21.993,101.992c1.557,0.227,3.729-0.724,3.947,2.063
			c-1.545,0.673-3.369,0.083-4.837,1.09c-2.827,1.78-0.843,3.407,0.284,4.844c1.443,1.838,3.605,2.842,5.511,4.142
			c1.393,0.949,3.571,1.348,3.108,3.833c-3.893-0.962-7.256-2.873-10.261-5.518c-1.868-1.645-4.033-3.271-3.579-5.992
			C16.667,103.442,19.328,102.552,21.993,101.992z"/>
		<path fill-rule="evenodd" clip-rule="evenodd" fill="#DDDDDD" d="M51.982,121.016c4.801,1.958,9.75,1.02,14.613,0.519
			c1.796-0.185,3.588-0.499,5.409-0.508c0.326,0.218,0.434,0.436,0.324,0.652c-0.108,0.217-0.218,0.324-0.327,0.324
			c-9.438,2.4-18.917,0.066-28.375,0.193c-0.211,0.003-0.434-0.772-0.651-1.186c0.826-1.005,1.979-1.211,3.179-1.31
			C48.184,119.747,50.331,119.291,51.982,121.016z"/>
		<path fill-rule="evenodd" clip-rule="evenodd" fill="#D3D3D3" d="M30.005,117.964c-2.688-3.231-7.307-3.955-9.782-7.356
			c-1.621-2.228-4.569-5.023,0.776-6.608c0.927,1.431-0.252,3.32,1.04,4.668c2.067,2.514,5.028,3.661,7.771,5.132
			c0.424,0.165,0.822,0.38,1.208,0.619c0.757,0.564,1.287,1.266,1.326,2.254c-0.169,0.722-0.618,1.162-1.344,1.319
			C30.669,117.993,30.337,117.984,30.005,117.964z"/>
		<path fill-rule="evenodd" clip-rule="evenodd" fill="#DBDBDB" d="M31.001,117.991c0.328-0.328,0.656-0.656,0.983-0.984
			c3.185-0.801,6.152,0.228,9.144,1.072c1.605,1.017,4.423-0.006,4.914,2.896c-1.022,0.013-2.044,0.024-3.066,0.036
			C38.866,120.474,34.64,120.397,31.001,117.991z"/>
		<path fill-rule="evenodd" clip-rule="evenodd" fill="#E2E2E2" d="M105.977,110.962c0.007,0.345,0.014,0.689,0.021,1.035
			c-3.214,1.637-5.752,4.966-10.007,3.992c-0.389-1.629,0.995-2.055,1.894-2.816C100.458,111.994,102.651,109.395,105.977,110.962z"
			/>
		<path fill-rule="evenodd" clip-rule="evenodd" fill="#DFDFDF" d="M72.001,122.003c-0.001-0.325,0.001-0.651,0.003-0.978
			c3.698-0.037,7.254-1.645,11.014-0.996C79.526,121.699,75.804,122.074,72.001,122.003z"/>
		<path fill-rule="evenodd" clip-rule="evenodd" fill="#CFCFCF" d="M98.036,114.021c-0.682,0.656-1.363,1.312-2.045,1.969
			c-0.664,0.327-1.328,0.653-1.992,0.98c-0.005-0.672-0.011-1.343-0.017-2.015c-0.282-0.443-0.274-0.871,0.068-1.283
			c0.622-0.441,1.322-0.609,2.075-0.598C96.884,113.143,97.554,113.395,98.036,114.021z"/>
		<path fill-rule="evenodd" clip-rule="evenodd" fill="#FBFBFB" d="M53.924,31.978c0.36,0.673,0.719,1.346,1.079,2.019
			c0.37,1.67,0.74,3.34,1.11,5.009c0.37,0.754,0.751,1.504,0.992,2.314c0.308,1.678,0.257,3.375,0.276,5.07
			c-0.017,2.875-0.001,5.75,0.014,8.625c-0.016,2.636-0.014,5.271,0,7.905c-0.015,2.372-0.015,4.744,0,7.116
			c-0.007,2.114-0.003,4.227,0.014,6.341c-0.021,8.881,0.008,17.762-0.004,26.635c0.33,3.724-0.992,7.598,0.995,11.18
			c0.583,0.921,1.169,1.844,0.658,3.004c-1.092,0.945-2.432,1.013-3.776,1.075c-0.786,0.035-1.572,0.021-2.358-0.022
			c-1.576-0.045-3.072-0.53-4.6-0.849c-1.52-0.329-3.244-0.334-3.741-2.312c0.386-2.052,1.932-2.062,3.516-2.008
			c1.19,0.403,2.514,0.595,2.978,1.326c-1.745-0.97-1.267-2.779-0.431-4.646c0.194-1.229,0.319-2.467,0.686-3.66
			c0.508-17.67,0.38-35.335,0.05-52.952c-0.777-0.355-1.371,0.156-2.008,0.436c-1.086,0.518-2.054,1.209-2.983,1.965
			c-0.725,0.52-1.483,0.928-2.422,0.756c-0.647-0.299-1.092-0.778-1.308-1.462c-0.048-0.975,0.438-1.708,1.065-2.377
			c1.271-1.132,2.33-2.438,3.132-3.944c0.176-0.371,0.37-0.734,0.552-1.103c0.518-1.131,0.595-2.383,0.962-3.556
			c0.347-1.001,0.64-2.027,1.325-2.875c1.126-0.646,2.179-1.341,2.089-2.865c0.055-1.21-0.215-2.37-0.563-3.516
			c-0.226-0.762-0.492-1.507-0.894-2.199c-0.344-0.533-0.637-1.086-0.753-1.721c0.014-0.452,0.166-0.852,0.43-1.215
			C53.107,27.498,53.123,30.352,53.924,31.978z"/>
		<path fill-rule="evenodd" clip-rule="evenodd" fill="#ACAEB1" d="M56.126,40.976c-0.004-0.656-0.009-1.313-0.013-1.971
			c9.162-2.304,18.477-3.991,27.464-6.995c1.756-0.587,3.664-2.068,5.457,0.048c-0.069,0.197-0.139,0.396-0.204,0.595
			c-0.744,1.024-1.673,1.861-2.675,2.626c-0.388,0.166-0.796,0.245-1.215,0.264c-1.406-0.23-2.328,0.667-3.307,1.443
			c-7.352,3.231-15.384,4.188-22.891,6.9C55.66,45,57.02,41.933,56.126,40.976z"/>
		<path fill-rule="evenodd" clip-rule="evenodd" fill="#DCDCDC" d="M91.013,32.155c0.655,0.95,1.311,1.899,1.965,2.85
			c0.267,1.122,0.812,2.234,0.112,3.392c-1.618,1.573-3.079,0.932-4.501-0.317c-1.385-2.14-1.271-4.169,0.459-6.075l-0.015,0.053
			C89.693,32.09,90.354,32.122,91.013,32.155z"/>
		<path fill-rule="evenodd" clip-rule="evenodd" fill="#333334" d="M30.609,51.897c-1-1.916-2-3.833-3-5.749
			c2.11-0.924,4.277,1.016,6.382-0.127c0.328,0.353,0.656,0.704,0.985,1.056c0.835,0.607,1.842,0.971,2.538,1.779
			c0.691,0.79,1.447,1.535,1.783,2.567c-0.769,1.171,1.729,1.683,0.601,2.934c-1.085,0.792-2.409,0.882-3.639,1.256
			c-1.89,0.491-3.516,0.02-4.896-1.346c-0.316-0.318-0.575-0.68-0.787-1.075C30.43,52.758,30.443,52.325,30.609,51.897z"/>
		<path fill-rule="evenodd" clip-rule="evenodd" fill="#002800" d="M38.967,42.946c0.189-1.496-0.4-2.797-1.02-4.091
			c-0.961-2.124-0.35-4.028,0.818-5.855c1.19-0.588,1.929,0.105,2.625,0.92c0.735,4.885,1.924,9.514,6.863,12.003
			c0.257,0.747,0.281,1.471-0.208,2.145l-0.017-0.065c-0.355,0.327-0.75,0.598-1.182,0.815c-1.193,0.366-2.373,0.28-3.542-0.11
			c-1.11-0.457-1.952-1.264-2.75-2.127C39.409,45.639,39.604,44.112,38.967,42.946z"/>
		<path fill-rule="evenodd" clip-rule="evenodd" fill="#DEDFE0" d="M33.002,25.075c0.003-0.371,0.005-0.742,0.008-1.113
			c1.047-1.134,2.641-0.955,3.881-1.623c0.662-0.448,1.422-0.74,2.018-1.291c1.365-0.017,2.729-0.034,4.095-0.052
			c1.002-0.809,1.764-0.494,2.379,0.499c0.109,0.446,0.096,0.896-0.055,1.332c-0.784,0.99-3.124,0.239-2.799,2.49
			c-0.087,0.422-0.304,0.76-0.644,1.018C39.064,24.93,36.057,24.837,33.002,25.075z"/>
		<path fill-rule="evenodd" clip-rule="evenodd" fill="#CDC7CD" d="M41.885,26.335c0.011-0.488,0.021-0.977,0.033-1.465
			c2.707-1.396,3.971,1.582,6.085,1.995c0.429,0.179,0.828,0.408,1.209,0.672c0.72,0.65,1.245,1.382,0.964,2.43
			c-0.047,0.281-0.064,0.564-0.052,0.85c-0.559,1.144-1.685,1.33-2.741,1.634c-0.43,0.063-0.857,0.034-1.276-0.085
			c-1.093-0.68-1.633-1.859-2.487-2.759c-0.718-0.733-0.872-1.812-1.568-2.561C41.855,26.842,41.8,26.605,41.885,26.335z"/>
		<path fill-rule="evenodd" clip-rule="evenodd" fill="#1C1C1C" d="M33.991,46.021c-2.072,2.825-4.239,0.843-6.382,0.127
			c-0.735-0.575-0.777-1.331-0.566-2.154C30.167,41.903,31.757,45.065,33.991,46.021z"/>
		<path fill-rule="evenodd" clip-rule="evenodd" fill="#285228" d="M42.052,27.046c1.042,0.209,1.694,0.864,2.086,1.819
			c-0.143,0.807,0.5,1.656-0.125,2.438c-0.549,0.607-1.33,0.963-1.804,1.654c-0.232,0.336-0.504,0.637-0.799,0.919
			c-0.183,0.087-0.369,0.171-0.555,0.255c-0.644-0.377-1.288-0.754-1.931-1.131c-0.248,0.349-0.521,0.369-0.819,0.062
			C37.486,29.788,41.723,29.698,42.052,27.046z"/>
		<path fill-rule="evenodd" clip-rule="evenodd" fill="#262826" d="M38.967,42.946c0.668,1.014,1.336,2.027,2.004,3.041
			c-0.655,1.892-1.572,3.437-3.98,3.007c-1.25-0.032-1.94-0.652-2.015-1.917C36.64,46.022,38.08,44.751,38.967,42.946z"/>
		<path fill-rule="evenodd" clip-rule="evenodd" fill="#7B7B7B" d="M31.991,36.008c0.282,1.82,0.564,3.641,0.847,5.461
			C30.239,39.88,31.168,37.822,31.991,36.008z"/>
		<path fill-rule="evenodd" clip-rule="evenodd" fill="#457B45" d="M38.105,33.062c0.275,0.006,0.549-0.015,0.819-0.062
			c-0.326,1.951-0.652,3.903-0.978,5.854C36.301,36.878,36.607,34.954,38.105,33.062z"/>
		<path fill-rule="evenodd" clip-rule="evenodd" fill="#1C1C1C" d="M26.865,42.314c-1.125-2.574-1.275-5.152-0.035-7.738
			C26.841,37.155,26.853,39.734,26.865,42.314z"/>
		<path fill-rule="evenodd" clip-rule="evenodd" fill="#F8F8F8" d="M50.177,29.967c-0.412-0.641-0.823-1.28-1.234-1.92
			c-0.421-1.253,0.261-1.909,1.282-2.385c7.028,0.254,13.533-2.32,20.202-3.909c4.16-0.992,8.247-2.14,12.562-2.086
			c0.77,0.122,1.449,0.318,1.039,1.349c0.23,0.455,0.461,0.911,0.69,1.367c-8.716,2.221-17.447,4.382-26.133,6.713
			c-1.743,0.468-4.185,0.203-4.661,2.882C52.66,31.336,52.613,28.427,50.177,29.967z"/>
		<path fill-rule="evenodd" clip-rule="evenodd" fill="#6D6F71" d="M94.979,21c0.707,0.018,1.414,0.034,2.122,0.052
			c-1.718,2.999-4.551,1.796-7.045,1.87c-0.109-1.345,0.622-1.9,1.858-1.98C92.935,20.961,93.957,20.98,94.979,21z"/>
		<path fill-rule="evenodd" clip-rule="evenodd" fill="#CECECE" d="M104.995,47.991c2,0.004,4,0.009,6,0.013
			c1.401,2.192,0.939,4.646,0.986,7.028c-0.425,0.349-0.885,0.641-1.379,0.882c-2.162,0.55-4.301,0.58-6.396-0.297
			c-3.572-4.355-3.335-5.052,2.217-6.477c0.648-0.157-0.301-0.714,0.057-0.151c0.132,0.207,0.028,0.393-0.307,0.386
			c-1.753-0.038-3.563,1.182-5.261-0.229c-0.246-0.545-0.168-1.038,0.229-1.483C102.507,46.833,103.769,47.211,104.995,47.991z"/>
		<path fill-rule="evenodd" clip-rule="evenodd" fill="#ECECEC" d="M110.748,55.07c0.411-0.013,0.822-0.026,1.233-0.038
			c0.004,8.653,0.008,17.308,0.012,25.961c-0.653,0.303-1.176,0.153-1.571-0.448c-1.594-7.913-0.705-15.884-0.542-23.841
			C110.078,56.111,110.369,55.567,110.748,55.07z"/>
		<path fill-rule="evenodd" clip-rule="evenodd" fill="#D2D2D2" d="M98.999,84.999c-0.332,0.002-0.664,0.004-0.996,0.005
			c-2.545,1.322-5.466-0.384-8.004,0.994C89,85.998,88,85.999,87.001,86c-2.604,1.49-5.151,2.483-7.199-0.831
			c2.765-3.088,6.495-2.427,10.01-2.529c2.113-0.062,4.233-0.064,6.349,0.059c0.898,0.063,1.755,0.271,2.516,0.778
			C99.209,83.892,99.316,84.4,98.999,84.999z"/>
		<path fill-rule="evenodd" clip-rule="evenodd" fill="#B6B6B8" d="M86.99,86.982c4,0.002,7.999,0.005,11.999,0.007l0.015,0.018
			c-0.336,2.638-2.505,2.132-4.153,2.305c-1.946,0.204-3.922,0.083-5.885,0.095c-2.453-0.02-4.914,0.103-7.356-0.11
			c-1.562-0.136-3.421-0.03-3.733-2.299C80.912,86.104,83.951,86.331,86.99,86.982z"/>
		<path fill-rule="evenodd" clip-rule="evenodd" fill="#CCCCCC" d="M86.99,86.982c-2.996,0.004-5.992,0.009-8.987,0.013
			c-0.32,0.333-0.693,0.411-1.123,0.236c-0.331-0.284-0.595-0.62-0.803-1.004c-0.342-0.814-0.669-1.632-0.076-2.476
			c0.386-0.228,0.802-0.349,1.25-0.369c1.148,0.145,2.139,0.56,2.747,1.621c2.109,1.916,4.677,0.603,7.003,0.996
			C87,86.327,86.996,86.655,86.99,86.982z"/>
		<path fill-rule="evenodd" clip-rule="evenodd" fill="#DCDCDC" d="M110.639,80.859c0.451,0.045,0.903,0.089,1.354,0.134
			c-0.973,2.355-3.062,1.981-4.976,2.034c-0.39,0.361-0.795,0.364-1.217,0.059c-0.299-1.064,0.214-1.807,0.972-2.453
			c0.615-0.37,1.288-0.528,2.001-0.537C109.484,80.127,110.134,80.317,110.639,80.859z"/>
		<path fill-rule="evenodd" clip-rule="evenodd" fill="#CCCCCC" d="M89.999,85.998c2.462-1.988,5.349-0.562,8.004-0.994
			C95.541,86.993,92.655,85.57,89.999,85.998z"/>
		<path fill-rule="evenodd" clip-rule="evenodd" fill="#D2D2D2" d="M105.975,82.972c0.348,0.019,0.695,0.037,1.043,0.056
			c-0.745,1.134-1.917,0.941-3.017,0.974c-0.72,0.604-1.455,0.526-2.201,0.052c-0.159-0.571-0.02-1.057,0.418-1.459
			C103.557,81.854,104.817,81.897,105.975,82.972z"/>
		<path fill-rule="evenodd" clip-rule="evenodd" fill="#CCCCCC" d="M101.988,83.989c0.671,0.004,1.342,0.008,2.013,0.012
			c-1.402,1.659-3.315,0.763-5.002,0.998c0.003-0.329,0.005-0.658,0.008-0.988C99.994,83.124,100.988,83.211,101.988,83.989z"/>
		<path fill-rule="evenodd" clip-rule="evenodd" fill="#FCFCFC" d="M27.972,75.014c0.047-0.822,0.207-1.588,1.028-2.015
			c0.989,0.553,1.503,1.461,1.875,2.481c0.179,0.509,0.29,1.033,0.354,1.568c0.198,2.94,0.092,5.886,0.145,8.826
			c0.229,4.51-0.618,9.063,0.541,13.525c0.992,1.168,2.301,1.759,3.778,2.029c0.807,0.096,1.631,0.018,2.427,0.226
			c0.945,0.392,1.747,1.043,2.675,1.465c1.34,0.654,2.775,0.756,4.235,0.732c0.687-0.017,1.367,0.009,2.053,0.086
			c0.489,0.063,0.954,0.189,1.411,0.373c0.469,0.228,0.818,0.572,1.061,1.031c0.374,1.028,0.306,2-0.367,2.896
			c-0.61,0.486-1.318,0.707-2.084,0.764c-3.084-0.036-5.832-2.097-9.026-1.503c-2.498-1.111-5.254-1.567-7.645-2.967
			c-0.139-0.185-0.275-0.371-0.411-0.558c-1.427-1.738-2.413-3.629-2.056-5.981C26.406,90.333,26.428,82.673,27.972,75.014z"/>
		<path fill-rule="evenodd" clip-rule="evenodd" fill="#E4E4E6" d="M27.972,75.014c-0.001,7.66-0.003,15.32-0.004,22.979
			c-0.456-0.183-1.283-0.316-1.313-0.555c-0.936-7.185-1.286-14.377,0.164-21.54C26.891,75.54,27.573,75.306,27.972,75.014z"/>
		<path fill-rule="evenodd" clip-rule="evenodd" fill="#B3B2B2" d="M30.112,75.98c-0.074-0.328-0.148-0.657-0.222-0.985
			c-0.574-1.646-0.578-3.29,0.003-4.935c0.065-3.049,0.131-6.099,0.196-9.147c0.575-0.229,1.047-0.094,1.418,0.401
			c0.295,0.466,0.497,0.971,0.618,1.508c0.321,3.775,0.38,7.555,0.021,11.337c-0.109,0.544-0.32,1.048-0.618,1.515
			C31.145,76.179,30.671,76.28,30.112,75.98z"/>
		<path fill-rule="evenodd" clip-rule="evenodd" fill="#C6C6C6" d="M20.999,109.002c-1.913-1.668-0.699-3.335,0-5.003
			c1.66-1.065,3.309-1.212,4.941,0.057c0.036,0.327,0.085,0.653,0.146,0.977c-0.141,0.15-0.281,0.302-0.42,0.456
			c-0.703,0.426-1.5,0.622-2.245,0.939C22.261,106.953,22.049,108.375,20.999,109.002z"/>
		<path fill-rule="evenodd" clip-rule="evenodd" fill="#EFF0F0" d="M26.086,105.032c1.312-0.353,2.624-0.705,3.936-1.058
			c0,0-0.023,0.015-0.023,0.015c0.585,1.123,0.487,2.341,0.493,3.556c-0.168,0.444-0.461,0.77-0.867,1.008
			c-0.707,0.269-1.417,0.276-2.139,0.073c-1.497-0.776-2.54-1.765-1.693-3.63L26.086,105.032z"/>
		<path fill-rule="evenodd" clip-rule="evenodd" fill="#ABABAB" d="M30.609,51.897c0.171,0.352,0.343,0.702,0.515,1.053
			c-0.421,0.99-1.133,1.68-2.138,2.066c-1.239-1.089-0.939-2.538-0.917-3.922C28.916,51.363,29.762,51.631,30.609,51.897z"/>
		<path fill-rule="evenodd" clip-rule="evenodd" fill="#828182" d="M28.985,55.017c0.107-1.314,0.705-2.122,2.138-2.066
			c0,0-0.111-0.031-0.111-0.031c0.496,0.611,0.621,1.32,0.554,2.083c-0.276,0.992-0.721,1.857-1.73,2.295
			C29.552,56.537,29.269,55.776,28.985,55.017z"/>
		<path fill-rule="evenodd" clip-rule="evenodd" fill="#7A7879" d="M29.835,57.297c0.186-0.85,0.229-1.768,1.103-2.285
			c1.674,1.95,1.696,3.89-0.042,5.815c-0.267,0.052-0.536,0.08-0.807,0.086C30.005,59.707,29.92,58.502,29.835,57.297z"/>
		<path fill-rule="evenodd" clip-rule="evenodd" fill="#EEEEED" d="M29.893,70.061c0,1.645-0.001,3.29-0.002,4.935
			c-0.297-0.665-0.594-1.331-0.891-1.996C29.045,71.942,28.798,70.798,29.893,70.061z"/>
		<path fill-rule="evenodd" clip-rule="evenodd" fill="#CDCFD1" d="M75.961,14.918c2.252-3.29,6.299-3.547,9.345-5.503
			c1.481-0.952,3.135-1.639,4.71-2.445c2.217,0.664,4.305,1.489,5.036,4.016c0.328,2.355-1.791,2.437-3.077,3.169
			c-2.987,1.702-6.261,2.906-8.921,5.18C79.459,19.837,77.636,17.498,75.961,14.918z"/>
		<path fill-rule="evenodd" clip-rule="evenodd" fill="#B8BABB" d="M82.965,19.047c0.935-3.422,4.477-3.274,6.737-4.877
			c1.688-1.197,3.92-1.518,5.349-3.185c2.264,2.912-0.803,3.026-2.129,4.047c-2.618,2.015-6.865,1.795-8.009,5.834
			c-0.294,0.057-0.589,0.107-0.885,0.149c-0.331-0.366-0.663-0.731-0.994-1.097c-0.259-0.175-0.354-0.362-0.289-0.562
			C82.812,19.15,82.886,19.047,82.965,19.047z"/>
		<path fill-rule="evenodd" clip-rule="evenodd" fill="#999B9C" d="M96.986,14.989c-2.726,3.727-7.153,4.325-11.003,5.985
			C88.831,17.472,93.232,16.826,96.986,14.989z"/>
		<path fill-rule="evenodd" clip-rule="evenodd" fill="#FAFAFA" d="M82.965,19.047c0.041,0.29,0.064,0.58,0.068,0.872
			c-3.613,2.072-7.85,1.563-11.716,2.904c-5.434,1.885-11.239,2.667-16.797,4.236c-1.942,0.549-3.141-0.171-4.516-1.06
			c-1.065-0.393-1.521-1.17-1.446-2.281c0.75-1.887,2.56-1.756,4.1-2.147c5.546-1.408,11.098-2.797,16.648-4.187
			c0.873-0.219,2.937-0.383,0.454-1.669C69.162,15.288,68.703,14.809,69,14c1.063-0.038,2.128-0.076,3.191-0.114
			c0.579-0.063,1.156-0.126,1.733-0.189c0.68,0.407,1.358,0.814,2.037,1.222C78.681,15.642,80.08,18.604,82.965,19.047z"/>
		<path fill-rule="evenodd" clip-rule="evenodd" fill="#F2F2F2" d="M69,14c0.333,0.334,0.666,0.667,0.999,1.001
			c0.309,2.3-1.329,2.598-2.985,3.022c-6.784,1.737-13.49,3.821-20.505,4.514c-0.562-0.009-1.066-0.188-1.511-0.532
			c-0.431-0.799-1.173-0.979-1.993-1.009c2.464-3.257,6.454-2.716,9.752-3.653C58.06,15.835,63.575,15.075,69,14z"/>
		<path fill-rule="evenodd" clip-rule="evenodd" fill="#B7B7B9" d="M38.909,21.048c-0.308,0.671-0.615,1.342-0.922,2.012
			c-1.671,0.611-3.335,0.742-4.985-0.073c-0.014-0.324-0.001-0.646,0.04-0.967C34.986,21.628,36.842,20.699,38.909,21.048z"/>
		<path fill-rule="evenodd" clip-rule="evenodd" fill="#CECECF" d="M92.993,38.009c-0.26-1-1.563-1.995-0.015-3.004
			c3.025,0.371,5.836-0.707,8.676-1.417c1.509-0.377,2.182-0.095,2.358,1.405c-0.005,0.336-0.011,0.672-0.016,1.007
			c-3.115,1.354-6.459,1.794-9.75,2.457C93.776,38.455,93.361,38.297,92.993,38.009z"/>
		<path fill-rule="evenodd" clip-rule="evenodd" fill="#C2C3C5" d="M104.887,92.896c0.011,0.389,0.021,0.778,0.032,1.168
			c-0.65,0.652-0.227,1.843-1.174,2.351c-4.535,0.86-8.842,2.982-13.63,2.471c-0.991-0.186-1.851-0.651-2.661-1.232
			c-0.925-0.835-2.143-1.536-1.488-3.124c5.426-3.315,11.331-4.22,17.564-3.479C104.15,91.539,104.506,92.227,104.887,92.896z"/>
		<path fill-rule="evenodd" clip-rule="evenodd" fill="#C4C5C6" d="M104.997,101.997c0.33,0.341,0.66,0.681,0.989,1.021
			c1.596,1.991,1.563,3.993,0.04,6.005l-0.016-0.017c-1.086,0.894-2.128,1.906-3.735,1.375c-0.969-0.812-0.47-1.76-0.188-2.643
			c0.574-1.795-0.475-1.895-1.782-1.763c-0.948,0.151-1.891,0.245-2.848,0.173c-1.611-0.271-3.096-0.675-2.896-2.809
			c2.465-2.766,5.576-4.252,9.234-4.646C105.041,99.486,103.973,101.122,104.997,101.997z"/>
		<path fill-rule="evenodd" clip-rule="evenodd" fill="#CCCCCC" d="M101.999,109.999c1.337-0.33,2.675-0.661,4.012-0.992
			c-0.012,0.652-0.022,1.304-0.034,1.956c-2.647,1.019-5.294,2.037-7.94,3.057c-0.678-0.006-1.356-0.013-2.034-0.019
			C96.755,110.8,99.138,110.04,101.999,109.999z"/>
		<path fill-rule="evenodd" clip-rule="evenodd" fill="#D3D3D3" d="M106.026,109.023c-0.014-2.002-0.026-4.003-0.039-6.005
			c1.784,0.194,3.459,0.839,3.321,2.878C109.191,107.63,108.05,108.955,106.026,109.023z"/>
		<path fill-rule="evenodd" clip-rule="evenodd" fill="#B5B6B8" d="M104.997,101.997c-1.187-0.716-0.955-1.908-1.011-3.004
			c-0.828-0.987-0.836-1.979-0.016-2.977c0.046-0.782,0.159-1.533,0.949-1.954C104.945,96.708,104.971,99.353,104.997,101.997z"/>
		<path fill-rule="evenodd" clip-rule="evenodd" fill="#A4A5A6" d="M104.887,92.896c-0.302-0.296-0.603-0.591-0.904-0.887
			c-0.593-0.884-1.006-1.827-0.978-2.92c0.079-0.815,0.468-1.484,1.001-2.083c0.354,0.356,0.706,0.713,1.06,1.07
			C105.007,89.683,104.947,91.289,104.887,92.896z"/>
		<path fill-rule="evenodd" clip-rule="evenodd" fill="#AEAEB0" d="M104.006,87.006c-0.008,0.667-0.016,1.335-0.023,2.002
			c-7.077,2.004-14.559,2.22-21.498,4.856c-1.102-0.053-2.079-0.432-2.947-1.106c-0.621-0.583-0.97-1.251-0.646-2.122
			c2.657-3.581,6.888-1.135,10.093-2.627c3.326-0.474,6.85,1.024,10.02-1.002C100.672,87.007,102.339,87.007,104.006,87.006z"/>
		<path fill-rule="evenodd" clip-rule="evenodd" fill="#D2D3D5" d="M93.996,38.014c3.183-1.423,6.383-2.756,10.001-2.014
			c-0.011,3.653-0.022,7.307-0.033,10.96c-0.626,0.603-1.331,0.552-2.064,0.255c-2.177-1.722,0.203-5.318-2.77-6.71
			c-1.684-0.317-3.483-0.101-4.997-1.137C93.707,38.954,93.662,38.503,93.996,38.014z"/>
		<path fill-rule="evenodd" clip-rule="evenodd" fill="#B8B8B8" d="M101.967,46.923c0.666,0.013,1.332,0.025,1.997,0.038
			c0.339,0.021,0.678,0.041,1.016,0.062c0.014,0.323,0.019,0.646,0.016,0.969c-1.334,0.011-2.667,0.021-4.001,0.032
			c-1.474,1.363-3.318,1.354-5.146,1.365c-6.626,0.041-13.252,0.059-19.877-0.013c-1.919-0.021-4.093,0.308-5.159-2.019
			c2.851-3.046,6.57-1.229,9.866-1.767c4.108,0.033,8.222,0.011,12.329,0.026c2.132,0.068,4.267,0.055,6.397-0.16
			C100.593,45.357,101.382,45.963,101.967,46.923z"/>
		<path fill-rule="evenodd" clip-rule="evenodd" fill="#FCFCFC" d="M33.001,22.986c1.662,0.024,3.324,0.048,4.985,0.073
			c-1.454,1.432-3.309,0.65-4.977,0.902C33.001,23.637,32.998,23.312,33.001,22.986z"/>
		<path fill-rule="evenodd" clip-rule="evenodd" fill="#ACACAC" d="M94.007,114.019c-0.01,0.312-0.018,0.625-0.024,0.938
			c-10.495,3.18-21.125,5.288-32.178,5.506c-2.659,0.053-5.192-0.975-7.807-0.368c-2.407,0.232-4.92,1.469-7.066-0.753
			c1.599-2.383,4.27-0.946,6.305-1.772c6.305,0.759,12.592-0.089,18.882-0.224c1.881-0.589,3.989-0.478,5.629-1.827
			c0.445-0.239,0.916-0.405,1.405-0.521c1.225-0.258,2.471-0.259,3.712-0.312c4.318,0.386,7.496-3.735,11.897-3.021
			C95.864,112.881,94.706,113.376,94.007,114.019z"/>
		<path fill-rule="evenodd" clip-rule="evenodd" fill="#C5C5C5" d="M46.971,119.04c2.125,1.8,4.709,0.538,7.027,1.053
			c-0.672,0.309-1.344,0.615-2.016,0.923c-1.98-0.013-3.961-0.026-5.941-0.04c-1.238-1.821-3.836-0.116-5.068-1.954
			c0.887-1.095,2.13-1.125,3.382-1.14c0.499,0.02,0.984,0.114,1.462,0.257c0.222,0.11,0.441,0.227,0.663,0.34
			C46.645,118.664,46.808,118.852,46.971,119.04z"/>
		<path fill-rule="evenodd" clip-rule="evenodd" fill="#ACACAD" d="M25.793,104.996c0.247,1.325,0.739,2.491,2.042,3.127
			c1.426,0.633,2.837,1.285,3.732,2.663c0.702,1.145,1.75,1.991,2.604,3.01c0.177,0.446,0.163,0.89-0.012,1.332
			c-0.365,0.303-0.778,0.498-1.247,0.574c-0.712-0.039-1.381-0.201-1.94-0.678c-0.32-0.017-0.641-0.033-0.96-0.051
			c-1.81-1.163-3.346-2.683-5.25-3.753c-2.52-1.417-3.49-3.492-1.759-6.219C23.934,105,24.863,104.998,25.793,104.996z"/>
		<path fill-rule="evenodd" clip-rule="evenodd" fill="#BDBDBD" d="M23.003,105.002c-0.326,2.767,0.578,4.81,3.19,6.133
			c1.636,0.828,2.91,2.196,3.818,3.839c-3.307-1.534-6.933-2.587-9.013-5.972C20.915,107.292,21.164,105.748,23.003,105.002z"/>
		<path fill-rule="evenodd" clip-rule="evenodd" fill="#BABABA" d="M30.973,115.024c0.673-0.008,1.345-0.016,2.018-0.022
			c2.416,0.396,4.869,0.53,7.277,1.005c1.645,0.89,4.363,0.094,4.739,2.989c-1.344,0.008-2.688,0.017-4.033,0.024
			c-2.98-0.742-6.181-0.503-8.989-2.015C31.647,116.346,31.31,115.685,30.973,115.024z"/>
		<path fill-rule="evenodd" clip-rule="evenodd" fill="#B3B3B4" d="M94.007,114.019c0.333-0.667,0.666-1.335,0.999-2.002
			c0.235-0.993,0.986-1.503,1.812-1.947c2.42-0.846,3.503-2.791,4.181-5.072c1.084-1.336,1.967-0.685,2.583,0.396
			c1.177,2.066-1.025,3.074-1.583,4.605c-1.999,1.334-3.998,2.668-5.997,4.002C95.337,114.007,94.672,114.013,94.007,114.019z"/>
		<path fill-rule="evenodd" clip-rule="evenodd" fill="#C8C9CC" d="M56.126,40.976c1.088,0.168,0.207,2.399,2.048,1.865
			c7.932-2.301,15.878-4.548,23.821-6.813c0.86,0.481,1.268,1.258,1.431,2.197c-0.028,0.469-0.188,0.888-0.488,1.252
			c-1.243,1.064-2.762,1.663-4.166,2.464c-1.517,0.77-3.121,1.21-4.82,1.295c-3.34,0.069-6.568,0.604-9.513,2.31
			c-2.237,0.819-4.43,1.806-6.868,1.905c-0.849-0.101-1.108-0.823-1.492-1.416C56.094,44.348,56.11,42.662,56.126,40.976z"/>
		<path fill-rule="evenodd" clip-rule="evenodd" fill="#E0E0E0" d="M50.97,51.812c0.452-0.68,0.903-1.36,2.019-3.04
			c0,9.292,0.001,17.5,0,25.708c-0.002,9.12,0.027,18.24-0.041,27.359c-0.013,1.747,0.636,3.689-0.946,5.179
			c-0.187-0.192-0.373-0.385-0.563-0.576c-0.675-1.23-0.692-2.584-0.745-3.935c-0.032-1.642-0.042-3.283-0.064-4.927
			c0.002-2.567-0.005-5.132-0.023-7.699c0.014-2.653,0.01-5.306-0.007-7.958c0.018-3.282,0.013-6.562-0.005-9.842
			c0.04-4.939-0.009-9.88,0.033-14.815c0.01-1.062,0.039-2.128,0.073-3.19C50.707,53.313,50.904,52.57,50.97,51.812z"/>
		<path fill-rule="evenodd" clip-rule="evenodd" fill="#ECEDED" d="M49,113.999c-1.427,0.134-3.067-0.474-4.063,1.165
			c-0.408,0.863-1.053,1.302-2.037,1.141c-1.363-0.616-2.356-1.757-3.61-2.539c-0.35-0.268-0.637-0.59-0.886-0.95
			c-0.609-1.416-1.612-2.679-1.684-4.307c0.293-0.733,0.913-0.999,1.623-1.139c2.68-0.627,5.018,1.035,7.583,1.13
			c0.447,0,0.862,0.129,1.243,0.359c0.162,0.395,0.186,0.806,0.083,1.215C46.554,111.943,49.83,112.067,49,113.999z"/>
		<path fill-rule="evenodd" clip-rule="evenodd" fill="#CCCDCE" d="M56.07,103.969c0.007-9.328,0.013-18.656,0.02-27.985
			c0.608-0.062,1.089,0.154,1.447,0.649c1.828,4.52,0.009,9.374,1.285,13.944c0.242,1.065,0.253,2.137,0.078,3.21
			c-0.92,2.724-0.366,5.601-0.825,8.376c-0.113,0.512-0.325,0.979-0.624,1.407C57.076,103.994,56.614,104.126,56.07,103.969z"/>
		<path fill-rule="evenodd" clip-rule="evenodd" fill="#878787" d="M51.834,52.945c-0.003,1.024-0.007,2.048-0.011,3.071
			c-0.646,1.704-0.187,3.754-1.635,5.211c-0.436,0.229-0.899,0.319-1.389,0.298c-1.324-0.333-1.952-1.389-2.575-2.455
			c-0.677-1.351-1.195-2.719-0.36-4.2c0.662-1.208,1.688-1.856,3.053-1.984C49.861,54.301,50.869,52.577,51.834,52.945z"/>
		<path fill-rule="evenodd" clip-rule="evenodd" fill="#B2B3B4" d="M45.864,54.87c0.396,1.363,0.793,2.727,1.19,4.09
			c0.391,0.447,0.394,0.897,0.009,1.35c-0.41,0.313-0.869,0.526-1.37,0.648c-2.054,0.423-3.959-0.348-5.915-0.741
			c-0.729-0.182-1.401-0.478-1.965-0.986c-0.414-0.643-0.483-1.325-0.225-2.042c1.82-2,4.351-0.366,6.394-1.24
			C44.61,55.589,45.237,55.229,45.864,54.87z"/>
		<path fill-rule="evenodd" clip-rule="evenodd" fill="#919191" d="M73.027,118.029c-6.68,1.56-13.356,1.609-20.03-0.037
			c-0.342-0.176-0.457-0.354-0.347-0.536c0.11-0.183,0.222-0.274,0.336-0.274c0.602-0.026,1.203-0.052,1.805-0.078
			c3.104,1.292,5.917-0.572,8.878-0.832c0.755-0.145,1.513-0.148,2.272-0.041c2.135,0.704,4.508,0.181,6.577,1.244
			C72.689,117.658,72.858,117.844,73.027,118.029z"/>
		<path fill-rule="evenodd" clip-rule="evenodd" fill="#F7F7F7" d="M49,113.999c-1.059-0.695-2.152-1.346-3.161-2.108
			c-0.458-0.347-0.748-0.916-1.114-1.384c0.754-0.163,1.509-0.325,2.263-0.488c1.808-0.393,3.541-0.399,5.006,0.973
			c-0.375,0.604-1.066,1.22-1.042,1.808c0.026,0.669,2.152,0.837,0.921,1.941C51.079,115.452,49.752,115.091,49,113.999z"/>
		<path fill-rule="evenodd" clip-rule="evenodd" fill="#B6B5B6" d="M52.881,37.879c0.408,2.315,0.405,4.251-2.898,3.123
			c-2.768-0.282-1.779-2.797-2.552-4.271c-0.114-0.459-0.162-0.927-0.165-1.399c0.045-0.474,0.201-0.912,0.445-1.318
			c0.386-0.283,0.817-0.406,1.296-0.35c0.657,0.255,1.154,0.703,1.539,1.283C51.236,35.99,51.574,37.318,52.881,37.879z"/>
		<path fill-rule="evenodd" clip-rule="evenodd" fill="#F5F5F6" d="M66.069,117.144c-0.64-0.026-1.278-0.053-1.917-0.079
			c-1.733,0.61-3.458,0.735-5.167-0.086c-0.335-0.671-0.67-1.341-1.005-2.012c0.191-0.141,0.382-0.28,0.572-0.424
			c2.316-0.372,4.716,0.568,6.994-0.462c1.548-0.266,3.072-0.379,4.413,0.684C70.072,117.861,67.57,116.683,66.069,117.144z"/>
		<path fill-rule="evenodd" clip-rule="evenodd" fill="#222222" d="M36.028,54.953c1.04-1.418,2.581-0.8,3.929-0.969
			c0.513-0.983,0.942-2.027,1.924-2.678c0.802-0.446,1.604-0.977,2.46-0.102c0.295,0.698,0.229,1.336-0.314,1.896
			c-0.359,0.627-0.717,1.255-1.076,1.882c-0.317,0.411-0.722,0.698-1.213,0.866c-1.748,0.149-3.506,0.405-5.198-0.338
			C36.368,55.326,36.198,55.14,36.028,54.953z"/>
		<path fill-rule="evenodd" clip-rule="evenodd" fill="#DADBDC" d="M56.07,103.969c0.304,0.02,0.607,0.027,0.912,0.025
			c0.185,0.179,0.37,0.357,0.558,0.534c1.291,2.644,0.383,5.588,1.147,8.306c0.055,0.806-0.138,1.529-0.721,2.117
			c0,0,0.016,0.017,0.015,0.016c-3.233-0.748-1.712-3.352-1.917-5.186C55.851,107.867,56.051,105.908,56.07,103.969z"/>
		<path fill-rule="evenodd" clip-rule="evenodd" fill="#898989" d="M52.986,117.182c0.004,0.271,0.007,0.54,0.011,0.811
			c-1.839,1.323-4,0.8-6.026,1.047c0,0.001,0.084-0.223,0.084-0.223c-1.375-2.315,0.886-2.026,1.889-2.639
			C50.292,116.513,51.639,116.848,52.986,117.182z"/>
		<path fill-rule="evenodd" clip-rule="evenodd" fill="#373738" d="M52.881,37.879c-3.583,1.83-2.408-1.441-3.01-2.808
			c-0.046-1.749,0.813-1.71,2.004-1.014C52.21,35.331,52.546,36.605,52.881,37.879z"/>
		<path fill-rule="evenodd" clip-rule="evenodd" fill="#F5F4F5" d="M42.126,55.105c0.276-0.035,0.551-0.076,0.825-0.123
			c0.344,0.322,0.688,0.645,1.032,0.966c-1.36,3.414-4.042,0.484-5.957,1.242c-1.249,0.476-2.131,0.324-2.172-1.269
			C37.848,54.908,40.133,56.126,42.126,55.105z"/>
		<path fill-rule="evenodd" clip-rule="evenodd" fill="#545D54" d="M47.882,35.73c2.042,1.223,0.288,3.957,2.101,5.271
			c-0.128,1.076,0.226,2.301-0.941,3.058c-0.83-0.193-1.399-0.702-1.774-1.454c-0.217-0.492-0.355-1.007-0.435-1.539
			C46.74,39.203,46.439,37.293,47.882,35.73z"/>
		<path fill-rule="evenodd" clip-rule="evenodd" fill="#818181" d="M48.944,116.178c-0.595,0.905-2.093,1.165-1.89,2.64
			c-0.333,0.011-0.668,0.021-1.002,0.033c-0.697-1.34-2.24-1.186-3.307-1.872c-0.091-0.458,0.01-0.862,0.333-1.205
			c0.62-0.203,1.239-0.406,1.859-0.61C45.957,116.75,47.712,115.429,48.944,116.178z"/>
		<path fill-rule="evenodd" clip-rule="evenodd" fill="#EEEFEF" d="M58.986,116.979c1.722,0.028,3.443,0.057,5.166,0.086
			c-3.113,1.357-6.233,1.459-9.359,0.038C56.189,117.062,57.587,117.021,58.986,116.979z"/>
		<path fill-rule="evenodd" clip-rule="evenodd" fill="#C1C2C3" d="M56.078,46.034c0.311,0.324,0.621,0.648,0.931,0.973
			c0.394,0.377,0.691,0.817,0.9,1.32c0.488,2.142,0.614,4.263-0.382,6.316c-0.353,0.509-0.814,0.637-1.38,0.383
			C56.124,52.029,56.101,49.031,56.078,46.034z"/>
		<path fill-rule="evenodd" clip-rule="evenodd" d="M44.027,53.101c0.009-0.667,0.018-1.333,0.027-1.999
			c0.07-1.88,1.846-2.149,2.915-3.087c0.353-0.004,0.706-0.009,1.059-0.013C47.377,50.237,46.702,52.453,44.027,53.101z"/>
		<path fill-rule="evenodd" clip-rule="evenodd" fill="#ECEDED" d="M51.994,110.991c-1.689-0.218-3.59,0.653-5.006-0.973
			l0.022-0.029c1.908-0.611,2.87-2.77,4.981-3.047l0.009,0.074C51.999,108.342,51.997,109.666,51.994,110.991z"/>
		<path fill-rule="evenodd" clip-rule="evenodd" fill="#B7B7B9" d="M56.147,55.026c0.281-0.013,0.563-0.02,0.845-0.021
			c1.377,1.246,1.243,2.916,1.284,4.54c-0.024,1.092-0.175,2.155-0.757,3.112c-0.363,0.507-0.823,0.613-1.375,0.32
			C56.146,60.328,56.146,57.677,56.147,55.026z"/>
		<path fill-rule="evenodd" clip-rule="evenodd" fill="#999A9A" d="M48.691,34.107l-0.352-0.005
			c-1.196-0.279-1.866-0.881-1.355-2.208c0.757-1.204,2.036-0.887,3.142-1.078c0.32,0.373,0.641,0.745,0.961,1.118
			C50.71,33.125,49.857,33.788,48.691,34.107z"/>
		<path fill-rule="evenodd" clip-rule="evenodd" fill="#535152" d="M51.834,52.945c-0.7,0.768-1.379,2.14-2.106,2.166
			c-1.182,0.042-0.498-1.452-0.812-2.226c0.35-0.997,1.291-0.864,2.053-1.074C51.258,52.189,51.546,52.567,51.834,52.945z"/>
		<path fill-rule="evenodd" clip-rule="evenodd" fill="#BFBFC1" d="M56.145,62.979c0.271,0.008,0.541,0.009,0.811,0.004
			c0.663,0.496,0.96,1.196,1.12,1.978c0.198,1.562,0.227,3.103-0.604,4.528c-0.349,0.44-0.801,0.605-1.353,0.496
			C56.127,67.648,56.136,65.313,56.145,62.979z"/>
		<path fill-rule="evenodd" clip-rule="evenodd" fill="#C6C6C7" d="M56.119,69.984c0.265,0.012,0.531,0.021,0.796,0.027
			c0.186,0.161,0.372,0.322,0.56,0.482c0.836,1.657,0.833,3.319,0.025,4.985c-0.182,0.166-0.367,0.33-0.552,0.494l-0.43,0.011
			c0,0-0.43,0-0.429,0C56.1,73.984,56.109,71.984,56.119,69.984z"/>
		<path fill-rule="evenodd" clip-rule="evenodd" fill="#737474" d="M48.691,34.107c0.609-0.934,1.249-1.832,2.395-2.173
			c0.593,0.585,0.957,1.256,0.789,2.123c-0.668,0.338-1.336,0.676-2.004,1.014C49.478,34.75,49.084,34.429,48.691,34.107z"/>
		<path fill-rule="evenodd" clip-rule="evenodd" fill="#1A231A" d="M48.136,43.139c0.302,0.307,0.604,0.613,0.906,0.921
			c-0.286,1.348,0.696,3.011-0.997,4.008c-0.03-0.743-0.06-1.487-0.089-2.23c-0.308-0.305-0.517-0.664-0.615-1.088
			C47.328,44.075,47.508,43.496,48.136,43.139z"/>
		<path fill-rule="evenodd" clip-rule="evenodd" fill="#EAEAE9" d="M82.979,38.996c0.039-0.327,0.05-0.655,0.033-0.984
			c-0.099-1.496-0.47-3.182,2.004-2.901c0.279,0.073,0.562,0.102,0.851,0.086c1.294,0.638,1.751,1.731,1.698,3.107
			c-0.358,1.396-1.252,2.2-2.677,2.418C83.838,40.605,82.745,40.533,82.979,38.996z"/>
		<path fill-rule="evenodd" clip-rule="evenodd" fill="#9EA0A2" d="M87.104,37.858c-0.412-0.889-0.824-1.776-1.236-2.663
			c0.13-1.989,1.762-2.484,3.181-3.191c-0.805,1.975,0.037,3.979-0.107,5.967c-0.258,0.312-0.588,0.492-0.988,0.543
			C87.536,38.468,87.253,38.249,87.104,37.858z"/>
		<path fill-rule="evenodd" clip-rule="evenodd" fill="#B7B7B6" d="M85.016,35.11c-0.668,0.967-1.336,1.935-2.005,2.901
			c-0.823-0.413-1-1.158-1.016-1.985C82.437,33.857,83.369,33.309,85.016,35.11z"/>
		<path fill-rule="evenodd" clip-rule="evenodd" fill="#E7E8EA" d="M88.038,38.179c0.298-0.084,0.599-0.153,0.902-0.208
			c1.351,0.021,2.692,1.046,4.053,0.038c0.334,0.001,0.669,0.003,1.003,0.005c0.017,0.361,0.032,0.722,0.049,1.083
			c0.119,0.956-0.484,1.395-1.236,1.731c-0.77,0.259-1.561,0.337-2.369,0.288C88.984,40.676,86.838,40.789,88.038,38.179z"/>
		<path fill-rule="evenodd" clip-rule="evenodd" fill="#BABBBC" d="M36.016,55.839c0.285,1.023,1.192,1.12,2.011,1.351
			C38.018,57.793,38.009,58.396,38,59c1.437,1.718,1.511,3.591,0.641,5.572c-1.583,1.916-3.447,0.858-5.249,0.497
			c-1.517-0.348-1.729-1.74-2.281-2.862c-0.071-0.459-0.143-0.918-0.215-1.378c0.014-1.94,0.028-3.879,0.042-5.817
			c0.024-0.697,0.049-1.396,0.074-2.093c1.44,1.25,3.04,2.105,5.016,2.034l-0.078,0.102c0.361,0.146,0.491,0.31,0.391,0.494
			C36.235,55.742,36.128,55.839,36.016,55.839z"/>
		<path fill-rule="evenodd" clip-rule="evenodd" fill="#494949" d="M36.991,48.994c1.327-1.002,2.654-2.005,3.98-3.007
			c0.712,0.634,1.424,1.268,2.136,1.901c-0.513,1.629-1.505,3.014-2.294,4.504c-0.677,0.194-1.292,0.131-1.785-0.432
			C38.35,50.973,36.822,50.566,36.991,48.994z"/>
		<path fill-rule="evenodd" clip-rule="evenodd" fill="#242424" d="M39.029,51.961c0.671-0.019,1.343-0.037,2.014-0.056
			c0.402-0.226,0.724-0.142,0.964,0.252c-0.683,0.609-1.366,1.219-2.05,1.828C40.139,53.085,37.888,53.3,39.029,51.961z"/>
		<path fill-rule="evenodd" clip-rule="evenodd" fill="#285228" d="M47.781,44.675c0.059,0.389,0.117,0.777,0.175,1.164
			c-5.893-1.632-6.689-2.946-7.1-11.709c-0.001,0.002,0.208-0.181,0.208-0.181c1.131-0.378,1.717,0.301,2.221,1.141
			c0.142,0.441,0.191,0.896,0.164,1.357c-0.347,2.109,0.224,3.899,1.871,5.308C46.385,42.521,47.146,43.546,47.781,44.675z"/>
		<path fill-rule="evenodd" clip-rule="evenodd" fill="#666466" d="M42.007,52.157c-0.32-0.091-0.641-0.174-0.964-0.251
			c-1.386-2.405,0.711-3.02,2.065-4.017c1.287,0.041,2.574,0.083,3.861,0.125c-0.433,1.538-1.744,2.246-2.915,3.087
			C43.372,51.453,42.689,51.806,42.007,52.157z"/>
		<path fill-rule="evenodd" clip-rule="evenodd" fill="#FAFAFA" d="M47.943,27.926c-2.641,0.231-3.443-3.165-6.024-3.055
			c-0.915-0.66-1.214-1.556-0.357-2.332c1.22-1.106,2.311,0.11,3.438,0.47C47.135,23.957,49.272,24.904,47.943,27.926z"/>
		<path fill-rule="evenodd" clip-rule="evenodd" fill="#E4E5E5" d="M47.943,27.926c0.146-2.313-2.265-3.097-2.943-4.917
			c-0.001-0.335-0.001-0.669-0.002-1.004c0.335-0.003,0.67-0.005,1.006-0.008c1.884-0.639,2.347,0.812,2.976,2.021
			c0.342,0.66,0.684,1.32,1.026,1.981c-0.354,0.682-0.708,1.364-1.062,2.047C48.609,28.007,48.276,27.966,47.943,27.926z"/>
		<path fill-rule="evenodd" clip-rule="evenodd" fill="#657F65" d="M47.781,44.675c-0.917-0.567-1.834-1.136-2.751-1.703
			c-1.122-2.193-3.415-4.047-2.028-6.971h0.001c0.918-1.077-0.743-1.901-0.29-2.936c0.458-0.83,1.312-1.093,2.09-1.467
			c0.45-0.083,0.837,0.047,1.169,0.355c0.337-0.02,0.674-0.039,1.01-0.06c0.45,0.736,0.9,1.472,1.353,2.208
			c-0.131,0.486-0.264,0.973-0.397,1.459c-1.839,1.998-0.711,4.054-0.119,6.099c0.104,0.492,0.209,0.985,0.315,1.478
			C48.018,43.65,47.899,44.163,47.781,44.675z"/>
		<path fill-rule="evenodd" clip-rule="evenodd" fill="#080A08" d="M45.973,31.954l-0.451-0.064l-0.456,0.015
			c-0.616-0.079-0.944-0.415-0.936-1.051c-0.163-0.663-1.332-1.331,0.008-1.988C45.323,29.555,45.929,30.588,45.973,31.954z"/>
		<path fill-rule="evenodd" clip-rule="evenodd" fill="#8CA48C" d="M44.131,30.854c0.312,0.351,0.624,0.701,0.936,1.051
			c-0.707,0.429-1.413,0.857-2.12,1.287c-0.698,0.406-1.346,0.396-1.917-0.234C40.9,30.54,42.616,30.844,44.131,30.854z"/>
		<path fill-rule="evenodd" clip-rule="evenodd" fill="#476D47" d="M41.03,32.957c0.639,0.077,1.278,0.154,1.917,0.232
			c0.435,0.93,1.597,1.844,0.056,2.812c-0.647-0.684-1.293-1.366-1.939-2.051C41.016,33.62,41.004,33.289,41.03,32.957z"/>
		<path fill-rule="evenodd" clip-rule="evenodd" fill="#E6E6E6" d="M101.007,48.964c1.972,0,3.943,0,5.916,0
			c-3.083,1.016-5.127,2.334-2.952,5.866c-0.406,0.428-0.904,0.646-1.493,0.657c-8.281-0.403-16.604,0.352-24.863-0.831
			c-1.782-1.386-2.068-3.493-1.574-5.294c0.421-1.533,2.215-0.755,3.467-0.56c5.82,0.447,11.647,0.086,17.469,0.199
			C98.319,49.14,99.659,48.661,101.007,48.964z"/>
		<path fill-rule="evenodd" clip-rule="evenodd" fill="#D3D2D2" d="M79.066,49.041c-0.749,0.434-3.562-1.14-1.781,1.724
			c0.806,1.296,0.164,2.163-0.325,3.18c-0.105,0.77-0.537,1.295-1.219,1.638c-0.693,0.253-1.396,0.277-2.106,0.086
			c-0.438-0.177-0.79-0.467-1.055-0.859c0.809-3.55-2.607-4.544-4.079-6.725c0.007-0.492,0.161-0.928,0.463-1.315
			c0.74-0.321,1.406-0.276,1.954,0.377c4.81,1.773,9.791,0.576,14.687,0.792c5.121,0.227,10.26,0.073,15.391,0.086
			c0.003,0.314,0.007,0.628,0.012,0.94c-0.998,0.346-1.995,0.69-2.993,1.036c-4.508-1.129-9.094-0.208-13.632-0.523
			C82.609,49.354,80.779,49.892,79.066,49.041z"/>
		<path fill-rule="evenodd" clip-rule="evenodd" fill="#484848" d="M73.978,55.138c0.696-0.099,1.393-0.198,2.088-0.297
			c8.958-0.585,17.916-0.455,26.874-0.023c0.344,0.004,0.688,0.008,1.031,0.013c2.259,0.08,4.518,0.16,6.777,0.24
			c0,0.341,0.001,0.681,0.002,1.021c-0.348,0.399-0.736,0.754-1.166,1.071c-1.282,0.744-2.638,0.605-4.009,0.34
			c-8.242-0.253-16.482-0.025-24.721-0.125c-2.123-0.025-4.301,0.286-6.32-0.722C73.928,56.304,73.744,55.797,73.978,55.138z"/>
		<path fill-rule="evenodd" clip-rule="evenodd" fill="#0F0F0F" d="M109.973,56.238c0.265-0.019,0.524-0.067,0.777-0.146
			c-0.037,8.256-0.074,16.512-0.111,24.768c-0.54-0.01-1.079-0.02-1.618-0.029c-0.573-0.574-0.943-1.254-1.085-2.058
			c-0.161-1.077-0.113-2.149,0.035-3.227c0.062-0.557,0.188-1.097,0.344-1.631c0.601-3.817,0.231-7.65,0.238-11.476
			C108.557,60.264,108.534,58.084,109.973,56.238z"/>
		<path fill-rule="evenodd" clip-rule="evenodd" fill="#E4E4E4" d="M79.998,85.004c-0.981-0.344-1.963-0.688-2.944-1.032
			c-0.17-0.584-0.018-1.067,0.457-1.451c0.713-0.482,1.511-0.7,2.355-0.783c3.638-0.179,7.278-0.069,10.92-0.112
			c1.99,0.103,4.045-0.221,5.888,0.873c0.533,0.406,0.64,0.905,0.321,1.495C91.313,84.064,85.602,83.612,79.998,85.004z"/>
		<path fill-rule="evenodd" clip-rule="evenodd" fill="#DCDCDC" d="M96.995,83.993c0.005-0.324,0.01-0.648,0.015-0.972
			c0.539-0.666,1.27-0.947,2.091-1.056c1.113-0.053,2.146,0.123,2.908,1.048c-0.005,0.325-0.012,0.65-0.021,0.976
			c-0.994,0.008-1.988,0.015-2.981,0.021C98.336,84.005,97.665,83.999,96.995,83.993z"/>
		<path fill-rule="evenodd" clip-rule="evenodd" fill="#A2A3A5" d="M88.984,88.009c-3.102,1.834-7.183,0.43-10.051,3.037
			c-2.132,1.312-3.467,0.571-4.234-1.642c0.272-1.302,0.431-2.718,2.346-2.448c0.319-0.001,0.639,0.012,0.958,0.039
			C81.497,89.138,85.342,87.478,88.984,88.009z"/>
		<path fill-rule="evenodd" clip-rule="evenodd" fill="#B8B8B8" d="M75.979,84.01c0.339,0.663,0.679,1.327,1.019,1.991
			c-1.398,1.108-2.781,0.411-4.171-0.023c-1.53-1.021-3.812-1.643-2.349-4.3c0.453-0.167,0.923-0.229,1.405-0.177
			C73.472,81.968,75.021,82.509,75.979,84.01z"/>
		<path fill-rule="evenodd" clip-rule="evenodd" fill="#AFAFAF" d="M73,85.002c1.333,0.333,2.665,0.666,3.998,0.999
			c0.016,0.318,0.031,0.638,0.046,0.956c-0.689,0.684-1.38,1.367-2.07,2.051c-0.201-0.088-0.401-0.177-0.605-0.261
			c-0.901-0.672-1.678-1.437-1.901-2.604C72.478,85.685,72.647,85.3,73,85.002z"/>
		<path fill-rule="evenodd" clip-rule="evenodd" fill="#CECECE" d="M75.979,84.01c-1.562-0.162-2.926-0.73-3.981-1.935
			c0.142-0.164,0.283-0.328,0.424-0.494c1.618-0.729,2.967-0.134,4.235,0.861c0.119,0.182,0.236,0.366,0.353,0.551
			c0.005,0.327,0.019,0.653,0.043,0.979C76.695,83.984,76.337,83.997,75.979,84.01z"/>
		<path fill-rule="evenodd" clip-rule="evenodd" fill="#222222" d="M108.943,78.959c0.025,0.623,0.051,1.247,0.077,1.871
			c-0.685,0.111-1.369,0.224-2.053,0.335c-4.973,1.648-10.095,0.605-15.144,0.792c-4.755,0.176-9.521,0.059-14.282,0.023
			c-1.753-0.4-3.986,0.405-4.95-1.975c-0.002-0.7,0.29-1.239,0.873-1.625c4.008-1.685,8.223-0.841,12.347-0.934
			c5.825-0.132,11.657-0.079,17.486-0.006C105.295,77.467,107.326,77.471,108.943,78.959z"/>
		<path fill-rule="evenodd" clip-rule="evenodd" fill="#ECECEC" d="M77.009,81.166c9.986,0,19.973-0.001,29.959-0.001
			c-0.331,0.603-0.662,1.204-0.993,1.807c-1.322,0.014-2.645,0.027-3.966,0.041c-1.015-0.013-2.029-0.026-3.044-0.039
			c-2.677-1.025-5.462-0.24-8.186-0.489c-3.901,0.282-7.85-0.582-11.718,0.481c-0.684,0.01-1.368,0.019-2.052,0.027l-0.004-0.002
			C76.416,82.382,76.404,81.773,77.009,81.166z"/>
		<path fill-rule="evenodd" clip-rule="evenodd" fill="#F3F4F4" d="M47.059,104.95c-0.718,0.002-1.436,0.003-2.154,0.004
			c-1.722-1.137-4.218-0.606-5.556-2.579c-1.187-2.93-0.548-5.999-0.706-9.008c0.038-1.401,0.062-2.806,0.844-4.048
			c0.361-0.474,0.839-0.657,1.426-0.552c1.156,0.924,1.222,2.253,1.33,3.565c0.045,0.695,0.053,1.398,0.107,2.087
			c0.19,0.68,0.09,1.607,1.077,1.714c0.683,0.074,0.984-0.517,1.15-1.125c0.082-0.669,0.105-1.33,0.112-1.999
			c0.005-1.987-0.061-3.966-0.042-5.945c-0.022-1.259-0.023-2.518,0.013-3.774c0.871-2.834-1.714-4.947-1.596-7.627
			c1.454-0.892,2.902-1.799,4.496-0.264c1.401,3.067,0.581,6.327,0.829,9.495c-0.009,2.042-0.012,4.084,0,6.127
			c-0.017,2.644-0.011,5.288-0.001,7.934C48.306,101.033,48.617,103.2,47.059,104.95z"/>
		<path fill-rule="evenodd" clip-rule="evenodd" fill="#DADADA" d="M51.992,106.942c-1.108,1.919-2.245,3.791-4.981,3.047
			c-0.012-0.317-0.021-0.634-0.025-0.951c-0.344-0.224-0.457-0.445-0.339-0.665c0.116-0.218,0.232-0.327,0.35-0.327
			c0.664-0.019,1.328-0.037,1.991-0.057c1.532-2.279-0.662-4.363-0.354-6.58c-0.042-5.014-0.017-10.024-0.032-15.036
			c0.196-2.622-0.436-5.337,0.867-7.834c0.371-0.489,0.869-0.734,1.482-0.734c0.931,1.265,0.381,2.725,0.534,4.091
			c0.238,2.658-0.516,5.378,0.474,7.993c0.01,2.714,0.019,5.428,0.029,8.142c-0.808,1.614-0.769,3.236-0.042,4.864
			C51.961,104.244,51.977,105.593,51.992,106.942z"/>
		<path fill-rule="evenodd" clip-rule="evenodd" fill="#F9F9F9" d="M38,102c-0.696,0.317-1.392,0.634-2.088,0.951
			c-0.688-1.913-3.109-1.218-4.081-2.711c-0.237-0.383-0.349-0.799-0.341-1.248c2.242-1.683,5.42-2.771,4.207-6.647
			c-0.028-2.004-0.049-4.002-0.041-6.004c0.084-1.612-0.007-3.25,0.685-4.777c0.281-0.546,0.729-0.822,1.343-0.834
			c0.532,0.255,0.917,0.652,1.162,1.188c1.135,6.181-0.534,12.407,0.301,18.594C39.383,101.482,39.29,102.202,38,102z"/>
		<path fill-rule="evenodd" clip-rule="evenodd" fill="#FBFCFC" d="M49.95,86.011c-0.002,5.324-0.005,10.648-0.008,15.973
			c-0.881,0.828-0.012,2.205-0.944,3.017c-0.345-0.005-0.69-0.011-1.035-0.016c-0.902-1.707-0.249-3.545-0.448-5.31
			c-0.01-0.506,0.023-1.011,0.098-1.512c0.58-1.699,0.337-3.463,0.394-5.204c0.001-1.26-0.002-2.52,0.007-3.78
			c0.04-1.025-0.05-2.074,0.574-2.987C48.991,85.74,49.445,85.681,49.95,86.011z"/>
		<path fill-rule="evenodd" clip-rule="evenodd" fill="#C9CACB" d="M37.952,107.92c-0.341,0.352-0.683,0.704-1.024,1.056
			c-0.404,0.266-0.837,0.328-1.299,0.193c-1.675-1.229-4.112-0.521-5.613-2.198c-0.681-0.99-0.603-1.984-0.017-2.981
			c2.872,0.422,5.863,0.519,8.004,2.935c0.239,0.234,0.311,0.46,0.216,0.677C38.126,107.813,38.038,107.92,37.952,107.92z"/>
		<path fill-rule="evenodd" clip-rule="evenodd" fill="#D8D8D8" d="M37.952,107.92c0.016-0.331,0.033-0.663,0.051-0.995
			c3.337-2.346,5.963,1.009,8.994,1.121c0.002,0.331-0.001,0.661-0.011,0.992C43.879,109.438,40.961,108.314,37.952,107.92z"/>
		<path fill-rule="evenodd" clip-rule="evenodd" fill="#C5C4C4" d="M32.005,100.951c-2.434-0.306-1.977-2.184-1.977-3.742
			c-0.001-3.744,0.066-7.488,0.105-11.231c0.595-0.253,1.067-0.107,1.419,0.435c1.194,2.353,0.627,4.9,0.824,7.365
			c0.537,2.124-1.539,4.078-0.396,6.244l-0.051,0.222c0.327,0.124,0.447,0.27,0.361,0.438
			C32.199,100.861,32.104,100.951,32.005,100.951z"/>
		<path fill-rule="evenodd" clip-rule="evenodd" fill="#F0F1F1" d="M38,102c0.334-0.33,0.667-0.659,1.001-0.989
			c-0.19-2.753-1.984-5.698,0.966-8.075c0.01,3.353,0.02,6.706,0.03,10.059c0.347,0.207,0.468,0.422,0.362,0.646
			c-0.107,0.226-0.216,0.339-0.329,0.339C39.046,103.637,38.379,102.967,38,102z"/>
		<path fill-rule="evenodd" clip-rule="evenodd" fill="#BCBBBC" d="M30.92,85.98l-0.394,0.004c0,0-0.395-0.007-0.394-0.007
			c-0.007-3.332-0.014-6.664-0.021-9.997c0.269,0.007,0.538,0.007,0.806,0c2.279,2.618,1.382,5.63,1.069,8.573
			C31.772,85.135,31.415,85.609,30.92,85.98z"/>
		<path fill-rule="evenodd" clip-rule="evenodd" fill="#D7D7D7" d="M40.032,103.979c-0.029-0.327-0.04-0.655-0.034-0.984
			c1.897,0.001,3.648,0.367,4.908,1.96C43.183,105.118,41.526,104.955,40.032,103.979z"/>
		<path fill-rule="evenodd" clip-rule="evenodd" fill="#CCCACA" d="M32.005,100.951c-0.015-0.239-0.04-0.477-0.076-0.711
			c1.409,0.787,3.845,0.061,3.984,2.711C34.756,101.999,32.866,102.48,32.005,100.951z"/>
		<path fill-rule="evenodd" clip-rule="evenodd" fill="#E0E0E0" d="M48.008,99.002c-0.015,1.994-0.029,3.988-0.044,5.982
			c-0.303,0.002-0.604-0.009-0.905-0.033c-0.005-1.987-0.012-3.975-0.018-5.962C47.369,98.533,47.691,98.561,48.008,99.002z"/>
		<path fill-rule="evenodd" clip-rule="evenodd" fill="#ECEDED" d="M48.998,105c0.033-1.094-0.158-2.258,0.945-3.017
			c-0.247,2.014,0.895,4.248-0.955,6.006C48.991,106.993,48.995,105.997,48.998,105z"/>
		<path fill-rule="evenodd" clip-rule="evenodd" fill="#E2E3E4" d="M31.111,62.207c0.626,0.609,1.252,1.22,1.878,1.83
			c3.183,2.066,4.342,5.3,5.079,8.785c0.231,2.804,0.933,5.67-1.055,8.185l-0.03-0.024c-4.288,0.287-4.459-3.476-5.896-5.994
			C31.095,70.728,31.103,66.468,31.111,62.207z"/>
		<path fill-rule="evenodd" clip-rule="evenodd" fill="#E7E7E8" d="M31.087,74.988c0.597-0.188,1.75-0.473,1.677,0.055
			c-0.471,3.409,2.572,4.153,4.22,5.94c0.001,1.668,0.002,3.337,0.004,5.006c-1.351,0.688-2.496,0.164-3.654-0.552
			c-0.673-0.416-0.902-3.457-2.271-0.455c-0.048-3.001-0.096-6.001-0.145-9.002C30.974,75.649,31.03,75.319,31.087,74.988z"/>
		<path fill-rule="evenodd" clip-rule="evenodd" fill="#DFE0E1" d="M31.055,111.146c-1.072-1.009-2.145-2.017-3.219-3.024
			c0.717-0.045,1.435-0.091,2.153-0.137c1.625-0.963,2.962,0.095,4.379,0.619c1.062,1.013,1.614,2.141,0.798,3.573
			C33.421,113.33,32.128,112.677,31.055,111.146z"/>
		<path fill-rule="evenodd" clip-rule="evenodd" fill="#E8E8E9" d="M34.001,109.007c-1.337-0.34-2.675-0.681-4.012-1.021
			c0.009-0.338,0.018-0.676,0.026-1.015c2.016,0.701,5.018-1.596,6.082,2C35.41,109.635,34.71,109.55,34.001,109.007z"/>
		<path fill-rule="evenodd" clip-rule="evenodd" fill="#F5F5F6" d="M48.979,24.019c-0.992-0.674-1.984-1.348-2.976-2.021
			c6.793-1.641,13.574-3.338,20.391-4.878c1.511-0.341,2.922-0.519,3.605-2.118c1.654,0.018,3.295,0.069,4.584,2.172
			C65.925,19.488,57.452,21.753,48.979,24.019z"/>
		<path fill-rule="evenodd" clip-rule="evenodd" fill="#D2D3D5" d="M88,97c0.665,0.336,1.33,0.671,1.996,1.007
			c0.699,1.516,2.234,1.635,3.55,2.1c2.008,0.71,1.846,1.841,0.677,3.207c-2.471,2.004-5.824,2.938-7.331,6.098
			c-0.598,0.393-1.261,0.578-1.969,0.626c-1.159-0.019-3.142-0.562-2.837-1.194c2.476-5.131-3.191-5.016-4.622-7.548
			c-0.365-0.299-0.693-0.632-0.999-0.991c-1.183-1.607-0.966-3.102,0.372-4.502c0.441-0.188,0.901-0.243,1.376-0.172
			C81.359,96.901,84.561,97.797,88,97z"/>
		<path fill-rule="evenodd" clip-rule="evenodd" fill="#B6B6B8" d="M82.009,92.995c5.654-3.262,12.289-2.663,18.262-4.651
			c1.436-0.477,2.539,0.096,3.713,0.664c-0.001,1-0.001,2-0.001,3.001c-6.268-0.604-12.132,1.196-17.994,3.013
			C83.831,95.978,82.369,95.568,82.009,92.995z"/>
		<path fill-rule="evenodd" clip-rule="evenodd" fill="#CFD0D2" d="M93.999,102.998c0.96-2.119-0.469-1.987-1.849-2.021
			c-1.954-0.05-3.245-0.669-2.154-2.97c4.846,0.657,9.066-3.082,13.975-1.99c0.005,0.992,0.011,1.984,0.016,2.977
			c-3.015,1.291-5.674,3.379-8.982,4.011C94.667,103.347,94.332,103.362,93.999,102.998z"/>
		<path fill-rule="evenodd" clip-rule="evenodd" fill="#CFD0D2" d="M82.009,92.995c1.018,1.282,2.416,1.815,3.979,2.026
			C86.659,95.681,87.329,96.341,88,97c-2,2.457-6.453,2.013-9.999-0.999c-1.527-2.385-0.254-3.375,1.943-3.906
			C80.633,92.395,81.321,92.695,82.009,92.995z"/>
		<path fill-rule="evenodd" clip-rule="evenodd" fill="#C9CACC" d="M93.999,102.998c0.335,0.002,0.67,0.004,1.005,0.006
			c0.097,2.05,1.584,1.998,3.032,2.006c0.296,0.447,0.282,0.895,0.004,1.345c-1.479,1.441-3.454,1.825-5.303,2.487
			c-1.918,0.24-3.844,1.183-5.758-0.02C87.232,104.365,91.058,104.215,93.999,102.998z"/>
		<path fill-rule="evenodd" clip-rule="evenodd" fill="#ACACAC" d="M97.965,105.951c0.014-0.314,0.037-0.629,0.07-0.941
			c0.988-0.004,1.977-0.008,2.964-0.012c1.874,4.168-1.346,4.894-4.038,5.975C96.381,109.116,97.839,107.667,97.965,105.951z"/>
		<path fill-rule="evenodd" clip-rule="evenodd" fill="#D5D5D7" d="M79.944,92.095c-1.124,1.064-2.323,2.093-1.943,3.906
			c-0.336,0-0.672,0.001-1.008,0.002c-0.378,0.345-0.786,0.368-1.222,0.114c-0.789-0.88-1.145-2.011-1.746-3.003
			c-0.709-1.315-1.211-2.649-0.315-4.087c0.416-0.331,0.847-0.351,1.291-0.059l-0.027,0.039c0.771,1.748,2.248,2.122,3.96,2.037
			C79.271,91.396,79.607,91.745,79.944,92.095z"/>
		<path fill-rule="evenodd" clip-rule="evenodd" fill="#636465" d="M93.074,40.143c0.323-0.349,0.647-0.697,0.971-1.046
			c1.928-0.016,3.854-0.032,5.782-0.048c1.422,1.157,1.196,2.671,0.912,4.193c-0.134,0.312-0.315,0.607-0.604,0.757
			C94.447,46.933,94.446,46.931,93.074,40.143z"/>
		<path fill-rule="evenodd" clip-rule="evenodd" fill="#DDDEE0" d="M99.898,43.939c-0.023-1.63-0.048-3.261-0.071-4.891
			c4.387,1.627,1.234,5.303,2.14,7.875c-0.587-0.335-1.173-0.67-1.76-1.004C99.486,45.356,99.384,44.695,99.898,43.939z"/>
		<path fill-rule="evenodd" clip-rule="evenodd" fill="#929394" d="M70.918,47.146c-0.615,0-1.229,0-1.845-0.001
			c-0.632-0.697-0.668-1.464-0.271-2.283c1.136-0.994,2.479-0.979,3.854-0.795c4.523,1.502,8.351-1.268,12.5-2.069
			c2.116-0.623,4.232-1.239,6.48-0.824c2.563,1.002,2.745,2.75,1.556,4.931c-4,1.104-8.177-0.389-12.17,0.825
			C77.654,47.001,74.286,47.073,70.918,47.146z"/>
		<path fill-rule="evenodd" clip-rule="evenodd" fill="#7E7D7D" d="M93.013,45.994c-0.173-1.591,0.643-3.676-2.014-4.024
			c-0.317-0.26-0.502-0.594-0.556-1.001c0.074-0.407,0.289-0.717,0.646-0.93c0.661,0.034,1.323,0.069,1.985,0.104
			c2.139,1.183,1.978,3.485,2.163,6.677c1.641-2.395,1.628-6.642,4.661-2.88c0.103,0.66,0.205,1.32,0.309,1.98
			c-1.81,1.854-4.083,0.785-6.156,0.974C93.606,46.708,93.256,46.413,93.013,45.994z"/>
		<path fill-rule="evenodd" clip-rule="evenodd" fill="#97989A" d="M93.013,45.994c0.346,0.301,0.691,0.601,1.038,0.9
			c-4.343,0.011-8.686,0.023-13.028,0.034C84.893,44.995,89.029,46.476,93.013,45.994z"/>
		<path fill-rule="evenodd" clip-rule="evenodd" fill="#7A7A7A" d="M86.979,108.822c1.884-0.896,3.915-0.84,5.925-0.916
			c0.776-0.428,1.711-0.614,2.061,0.311c0.476,1.254-0.387,2.172-1.395,2.812c-3.314,2.102-7.001,3.419-10.584,4.952
			c-1.351-0.055-2.701-0.108-4.052-0.163c-0.967-1.663,0.344-2.21,1.403-2.9c1.294-0.842,3.134-0.784,3.936-2.411
			c0.103-0.606,0.27-1.175,0.899-1.446C85.774,108.98,86.377,108.901,86.979,108.822z"/>
		<path fill-rule="evenodd" clip-rule="evenodd" fill="#949495" d="M82.986,115.98c2.71-2.395,6.314-3.198,9.211-5.209
			c0.575-0.4,4.401-1.021,0.708-2.864c1.455-1.25,3.321-1.437,5.06-1.956c2.478,2.235-0.471,3.388-1.004,5.021
			c-0.651,0.348-1.304,0.695-1.955,1.044C90.84,112.853,87.466,116.094,82.986,115.98z"/>
		<path fill-rule="evenodd" clip-rule="evenodd" fill="#646363" d="M84.734,110.823c-0.206,3.67-5.303,1.664-5.8,4.995
			c-0.302,0.099-0.611,0.163-0.928,0.191c-0.878,1.568-2.307,1.612-3.834,1.383c-1.124-0.45-2.435-0.712-2.399-2.348
			c1-1.505,2.664-2.003,4.163-2.756c2.01-0.688,4.017-1.394,6.057-2.007C82.982,110.079,83.923,110.133,84.734,110.823z"/>
		<path fill-rule="evenodd" clip-rule="evenodd" fill="#919191" d="M74.064,116.915c1.438,0.242,2.68-0.379,3.942-0.905
			c-0.648,3.167-3.227,1.575-4.979,2.02l-0.057-0.069C72.802,117.054,73.021,116.554,74.064,116.915z"/>
		<path fill-rule="evenodd" clip-rule="evenodd" fill="#959595" d="M42.995,116.908c1.378,0.084,2.867-0.006,3.057,1.943
			c-0.348,0.048-0.697,0.096-1.045,0.145c-1.31-1.585-3.561-0.783-5.023-1.979c-0.133-0.171-0.265-0.342-0.398-0.514
			c0.097-0.444,0.357-0.763,0.756-0.974C41.68,115.113,42.297,116.088,42.995,116.908z"/>
		<path fill-rule="evenodd" clip-rule="evenodd" fill="#909090" d="M39.02,112.892c0.316,0.112,0.633,0.226,0.95,0.338
			c-0.008,0.91,0.27,1.816,0.04,2.729l-0.03,0.077c-2.254,1.2-4.008-0.459-5.95-1.044c-0.031-0.318-0.057-0.638-0.077-0.958
			c-0.276-1.071,0.406-1.397,1.246-1.604C36.574,111.753,37.835,112.003,39.02,112.892z"/>
		<path fill-rule="evenodd" clip-rule="evenodd" fill="#A7A7A7" d="M34.03,114.992c1.983,0.348,3.967,0.695,5.95,1.043
			c0.009,0.327,0.01,0.654,0.002,0.981c-2.537,0.044-4.944-0.363-6.992-2.015C33.337,114.998,33.684,114.995,34.03,114.992z"/>
		<path fill-rule="evenodd" clip-rule="evenodd" fill="#9C9C9C" d="M35.237,112.853c-0.427,0.394-0.855,0.788-1.283,1.182
			c-1.771-0.157-2.866-0.991-2.898-2.889c1.312,0.297,2.623,0.594,3.934,0.89l0.366,0.336L35.237,112.853z"/>
		<path fill-rule="evenodd" clip-rule="evenodd" fill="#D3D4D6" d="M57.013,48.003c-0.005-0.332-0.007-0.664-0.004-0.996
			c2.249-0.955,4.471-2.005,6.992-2.022c0.683-0.534,1.387-0.623,2.121-0.099c0.431,1.072,0.022,2.05-0.326,3.035
			c-0.654,1.743-0.343,3.576-0.509,5.364c-0.166,1.787-0.123,3.722-2.409,4.336C60.474,54.694,57.063,52.375,57.013,48.003z"/>
		<path fill-rule="evenodd" clip-rule="evenodd" fill="#CBCCCE" d="M66.093,45.028c-0.697-0.015-1.395-0.029-2.092-0.044
			c2.72-3.05,6.424-2.804,10-2.983c0.55,0.497,0.651,1.115,0.487,1.807c-0.297,0.655-0.782,1.069-1.511,1.166
			c-1.331,0.042-2.662,0.083-3.994,0.124C68.003,45.778,67.037,45.874,66.093,45.028z"/>
		<path fill-rule="evenodd" clip-rule="evenodd" fill="#D5D6D8" d="M74.009,43.935c-0.003-0.645-0.006-1.289-0.008-1.934
			c1.666-0.335,3.332-0.669,4.998-1.003c1.666-0.932,2.638-0.221,3.24,1.367C79.751,44.226,77.208,45.802,74.009,43.935z"/>
		<path fill-rule="evenodd" clip-rule="evenodd" fill="#CFD0D2" d="M82.013,42.004c-1.005-0.335-2.01-0.671-3.014-1.006
			c1.012-1.293,2.407-1.825,3.98-2.002c0.424,0.813,1.184,0.983,2.002,1.039c0.648,0.3,1.272,0.622,1.273,1.479
			c-0.435,1.063-1.472,1.035-2.351,1.297C83.148,42.834,82.515,42.572,82.013,42.004z"/>
		<path fill-rule="evenodd" clip-rule="evenodd" fill="#999999" d="M49.972,60.936c0.617-1.64,1.235-3.279,1.852-4.919
			c0.014,5.321,0.027,10.643,0.042,15.965c-0.547,0.292-1.001,0.186-1.364-0.317c-0.979-1.697-0.743-3.576-0.816-5.409
			C49.709,64.479,49.589,62.693,49.972,60.936z"/>
		<path fill-rule="evenodd" clip-rule="evenodd" fill="#A1A1A1" d="M51.104,71.981c0.254,0.008,0.509,0.008,0.763,0
			c0,3.334,0.001,6.668,0.002,10.002c-0.252,0.457-0.504,0.479-0.757,0c-0.071-1.319-0.142-2.64-0.212-3.96
			C49.384,75.956,49.297,73.937,51.104,71.981z"/>
		<path fill-rule="evenodd" clip-rule="evenodd" fill="#A7A7A7" d="M51.111,81.983c0.253,0.009,0.506,0.009,0.758,0
			c0.029,2.636,0.06,5.271,0.089,7.906C50.048,87.429,51.348,84.624,51.111,81.983z"/>
		<path fill-rule="evenodd" clip-rule="evenodd" fill="#C5C5C5" d="M51.946,102.895c-1.424-1.634-1.45-3.256,0.042-4.864
			C51.973,99.651,51.959,101.273,51.946,102.895z"/>
		<path fill-rule="evenodd" clip-rule="evenodd" fill="#E0E1E1" d="M35.237,112.853c-0.103-0.267-0.186-0.539-0.248-0.817
			c-0.33-1.01-0.659-2.019-0.988-3.028c0.698-0.012,1.396-0.023,2.095-0.036c0.278-0.001,0.555,0.001,0.832,0.005
			c1.812,0.71,2.181,2.19,2.091,3.916C37.759,112.878,36.498,112.865,35.237,112.853z"/>
		<path fill-rule="evenodd" clip-rule="evenodd" fill="#808080" d="M40.01,115.959c-1.166-0.894-1.732-1.796-0.04-2.729
			c1.509,0.271,2.354,1.353,3.107,2.545c-0.027,0.378-0.055,0.757-0.083,1.135C42,116.592,41.005,116.275,40.01,115.959z"/>
		<path fill-rule="evenodd" clip-rule="evenodd" fill="#D2D3D5" d="M57.038,65.049c-0.027-0.689-0.055-1.378-0.082-2.066
			c0.028-0.998,0.057-1.995,0.085-2.993c0.599-0.609,0.382-2.145,1.606-1.911c1.233,0.234,1.393,1.55,1.611,2.637
			c0.558,10.236-0.502,20.507,0.612,30.712c1.531,3.08,5.578,0.634,7.295,3.297c0.387,1.084-0.106,1.853-0.897,2.514
			c-0.432,0.201-0.89,0.299-1.364,0.304c-2.685-0.987-4.995-0.444-6.911,1.713c-0.728-0.297-1.153-0.863-1.417-1.577
			c0.043-1.236-0.419-2.527,0.422-3.668c-0.004-1.025-0.009-2.05-0.013-3.075c-1.062-4.754-0.186-9.571-0.47-14.348
			c0-1.992-0.001-3.987,0-5.979C57.292,68.761,58.013,66.832,57.038,65.049z"/>
		<path fill-rule="evenodd" clip-rule="evenodd" fill="#E2E2E4" d="M56.981,103.994c0.011-0.333,0.022-0.667,0.034-1
			c0.396-0.35,0.835-0.631,1.318-0.85c2.981-0.346,5.787-0.049,8.042,2.233c0.182,0.525,0.2,1.057,0.064,1.596
			c-0.35,0.778-0.917,1.343-1.679,1.719c-3.643,1.013-6.454,0.263-7.744-3.682L56.981,103.994z"/>
		<path fill-rule="evenodd" clip-rule="evenodd" fill="#F9F9FA" d="M57.951,76.026c0.012,4.97,0.023,9.938,0.034,14.908
			c-2.157-4.862-0.417-9.993-1.037-14.961c0,0,0.124,0.066,0.124,0.066C57.358,75.555,57.651,75.55,57.951,76.026z"/>
		<path fill-rule="evenodd" clip-rule="evenodd" fill="#E9E9EA" d="M58.004,103c-0.33,0-0.659-0.002-0.989-0.006
			c0.424-2.984-1.03-6.175,0.983-8.986c0.006,1.329,0.012,2.657,0.018,3.986C58.998,99.665,59.411,101.335,58.004,103z"/>
		<path fill-rule="evenodd" clip-rule="evenodd" fill="#A1A0A1" d="M46.938,60.052c0.039-0.364,0.077-0.728,0.116-1.092
			c0.668,0.71,1.336,1.42,2.003,2.13c0.908,0.986,0.997,2.122,0.613,3.348c-0.215,0.456-0.555,0.789-0.998,1.024
			c-0.772,0.189-1.466,0.058-2.058-0.503c-0.291-0.419-0.484-0.879-0.592-1.377C45.793,62.268,46.038,61.074,46.938,60.052z"/>
		<path fill-rule="evenodd" clip-rule="evenodd" fill="#B4B3B3" d="M49.019,65.024c0.012-1.312,0.025-2.624,0.038-3.936
			c0.307-0.04,0.612-0.091,0.915-0.152c1.694,1.44,0.86,3.36,0.967,5.103C49.892,66.472,49.379,65.893,49.019,65.024z"/>
		<path fill-rule="evenodd" clip-rule="evenodd" fill="#C6C7C8" d="M46.938,60.052c-0.002,1.321-0.004,2.642-0.006,3.963
			c-2.411,1.749-4.727,1.554-6.96-0.334c-0.498-0.667-0.647-1.408-0.436-2.214c1.796-2.046,4.733,0.893,6.462-1.469
			C46.312,59.994,46.626,60.012,46.938,60.052z"/>
		<path fill-rule="evenodd" clip-rule="evenodd" fill="#B4B5B5" d="M40.027,61.037c0,0.661,0,1.322,0,1.983
			c0.495,0.616,0.653,1.321,0.563,2.098c-0.624,1.187-0.348,3.31-2.748,2.666c-0.679-0.959-0.624-1.88,0.147-2.762
			C37.993,63.015,37.996,61.008,38,59c0.67,0.002,1.34,0.005,2.01,0.007C40.583,59.679,40.626,60.355,40.027,61.037z"/>
		<path fill-rule="evenodd" clip-rule="evenodd" fill="#BBBCBD" d="M40.027,61.037c-0.006-0.677-0.011-1.354-0.017-2.03
			c1.997,0.326,3.88,1.342,5.989,0.991C44.588,63.68,42.199,61.733,40.027,61.037z"/>
		<path fill-rule="evenodd" clip-rule="evenodd" fill="#828282" d="M74.064,116.915c-0.365,0.349-0.729,0.697-1.094,1.045
			c-2.297-0.307-4.766,0.843-6.901-0.816c1.398-0.683,2.797-1.366,4.196-2.049c0.63-0.572,1.229-0.59,1.785,0.103
			C72.722,115.77,73.393,116.343,74.064,116.915z"/>
		<path fill-rule="evenodd" clip-rule="evenodd" fill="#CCDDCC" d="M47.82,41.66c-1.549-2.067-3.701-4.146,0.121-6.103
			c-0.001,0.004-0.057,0.175-0.058,0.174C47.861,37.707,47.84,39.684,47.82,41.66z"/>
		<path fill-rule="evenodd" clip-rule="evenodd" fill="#EBEBEC" d="M72.051,115.197c-0.596-0.034-1.191-0.069-1.786-0.104
			c-1.753-0.028-3.508-0.059-5.262-0.088c-2.685-0.811-5.301-1.75-7.269-3.903c-0.378-1.989-0.648-3.745,2.466-3.308
			c1.587,0.224,3.286-0.004,4.797-0.797c0.287-0.326,0.573-0.652,0.86-0.979c1.032,0.26,1.988,0.73,2.997,1.066
			c0.599,0.259,1.428,0.604,1.434,1.167c0.026,2.802,1.276,3.892,4.06,3.447c0.819-0.131,1.457,0.538,1.775,1.354
			C75.062,114.332,73.657,114.956,72.051,115.197z"/>
		<path fill-rule="evenodd" clip-rule="evenodd" fill="#EEEFEF" d="M57.999,110.999c2.322,1.357,5.976,0.389,7.004,4.007
			c-2.363,2.289-4.693,0.18-7.037-0.054c0.005-0.647,0.01-1.294,0.015-1.94C57.429,112.336,57.436,111.665,57.999,110.999z"/>
		<path fill-rule="evenodd" clip-rule="evenodd" fill="#656565" d="M36.016,55.839c0.016-0.265-0.005-0.526-0.065-0.784
			c2.059,0.017,4.118,0.034,6.176,0.051C40.246,56.649,38.09,55.91,36.016,55.839z"/>
		<path fill-rule="evenodd" clip-rule="evenodd" fill="#E6E6E7" d="M57.999,110.999c-0.006,0.671-0.012,1.342-0.018,2.013
			c-1.968-2.824-0.56-6.01-0.963-9.001c2,2.759,4.841,3.272,7.98,2.987c-1.585,1.298-3.387,2.036-5.442,1.744
			C57.373,108.432,58.245,110.064,57.999,110.999z"/>
		<path fill-rule="evenodd" clip-rule="evenodd" fill="#D0D1D3" d="M59,60c-0.636-3.265-1.31,0.589-1.959-0.011
			c-0.016-1.661-0.033-3.322-0.049-4.983c0.007-2.334,0.014-4.669,0.021-7.003c1.427,1.536,0.52,4.72,4.686,4.481
			c2.954-0.169-0.148,2.929,0.297,4.514c0.343,0.231,0.458,0.547,0.348,0.945c-0.193,0.328-0.436,0.616-0.715,0.872
			c-0.55,0.511-1.022,1.112-1.669,1.521C59.561,60.451,59.241,60.338,59,60z"/>
		<path fill-rule="evenodd" clip-rule="evenodd" fill="#E1E2E3" d="M57.038,65.049c1.623,1.406,0.726,3.291,0.941,4.965
			c-0.312,0.441-0.613,0.434-0.904-0.021c0,0-0.159,0.02-0.16,0.02C56.956,68.357,56.997,66.703,57.038,65.049z"/>
		<path fill-rule="evenodd" clip-rule="evenodd" fill="#ECECED" d="M57.076,69.992c0.302,0.006,0.603,0.013,0.904,0.021
			c-0.009,2.004-0.019,4.008-0.028,6.013c0,0-0.441-0.008-0.441-0.008s-0.44,0.021-0.439,0.021
			C57.074,74.023,57.075,72.008,57.076,69.992z"/>
		<path fill-rule="evenodd" clip-rule="evenodd" fill="#DDDEE0" d="M86.12,41.07c-0.38-0.345-0.759-0.69-1.139-1.035
			c1.01-0.43,1.693-1.178,2.121-2.176c0.312,0.107,0.623,0.214,0.936,0.318c0.157,2.031,1.729,1.741,3.051,1.861
			c-0.086,0.252-0.138,0.511-0.156,0.776C89.382,41.902,87.771,41.868,86.12,41.07z"/>
		<path fill-rule="evenodd" clip-rule="evenodd" fill="#DADADB" d="M37.989,65.022c0.04,0.97,0.08,1.94,0.119,2.911
			c0.015,0.207,0.029,0.415,0.048,0.623c-0.064,1.257-0.057,2.539-1.178,3.433c-1.329-2.65-2.659-5.302-3.988-7.952
			C34.656,64.365,36.323,64.693,37.989,65.022z"/>
		<path fill-rule="evenodd" clip-rule="evenodd" fill="#476D47" d="M43.002,36.001c-0.342,2.62,1.766,4.527,2.028,6.971
			C42.666,41.14,40.879,39.14,43.002,36.001z"/>
		<path fill-rule="evenodd" clip-rule="evenodd" fill="#FEFEFE" d="M102.939,54.817c-8.958,0.008-17.916,0.016-26.874,0.023
			c0.299-0.299,0.597-0.597,0.895-0.896C85.628,53.985,94.321,53.285,102.939,54.817z"/>
		<path fill-rule="evenodd" clip-rule="evenodd" fill="#FEFEFE" d="M79.066,49.041c6.308,0.487,12.727-1.253,18.947,0.959
			C91.709,49.465,85.29,51.178,79.066,49.041z"/>
		<path fill-rule="evenodd" clip-rule="evenodd" fill="#333333" d="M108.943,78.959c-11.917,0.019-23.834,0.038-35.75,0.058
			c-1.709-0.478-2.387-1.841-2.391-3.375c-0.016-6.723-1.001-13.48,0.587-20.159c0.395-0.617,0.937-0.796,1.622-0.539
			c0.336-0.003,0.657,0.062,0.966,0.194c0.019,0.29,0.031,0.581,0.04,0.871c0.325,0.268,0.468,0.614,0.459,1.03
			c-0.05,0.604-0.107,1.209-0.046,1.819c0.183,0.866,0.483,1.695,0.677,2.559c0.207,3.467,2.347,4.186,5.408,4.266
			c3.861,0.103,8.009-1.066,11.417,1.901c0.285,3.731-3.241,3.936-4.998,5.457c6.396-0.947,12.913-0.202,19.414,0.927
			c1.25,0.217,2.103,0.93,2.629,2.063C108.967,77.007,108.955,77.982,108.943,78.959z"/>
		<path fill-rule="evenodd" clip-rule="evenodd" fill="#B8B8B8" d="M73.012,54.943l-0.207,0.224l-0.262-0.156
			c-2.438,3.35-0.317,7.202-1.182,10.724c-2.953,0.539-2.449-1.863-2.61-3.339c-0.376-3.426,0.11-6.898-0.341-10.327
			c-0.191-0.477-0.405-0.947-0.661-1.396c-0.22-0.465-0.319-0.961-0.312-1.476c0.168-0.8,0.541-1.369,1.484-1.274
			C72.06,49.229,75.442,50.393,73.012,54.943z"/>
		<path fill-rule="evenodd" clip-rule="evenodd" fill="#898B8C" d="M68.922,47.923c-0.316,0.352-0.632,0.703-0.947,1.054
			c-0.558,0.591-1.229,0.67-1.971,0.442c-0.858-0.573-1.413-1.286-1.081-2.397c0.39-0.664,0.779-1.329,1.17-1.993
			c0.964,0.023,1.928,0.046,2.891,0.069c0.03,0.683,0.06,1.364,0.09,2.047C69.021,47.404,68.97,47.663,68.922,47.923z"/>
		<path fill-rule="evenodd" clip-rule="evenodd" fill="#080808" d="M109.973,56.238c-0.498,6.236,1.085,12.576-0.931,18.738
			c-1.913-1.956-1.238-4.482-1.519-6.793c0.094-2.954-1.909-2.888-3.991-2.818c-2.158,0.07-3.958,1.591-6.157,1.454
			c-0.475-0.074-0.906-0.255-1.304-0.521c-0.748-2.884,1.93-3.324,3.324-4.682c1.127-0.684,2.243-1.39,3.327-2.143
			c1.304-0.692,2.538-1.512,3.851-2.192c0.204-0.055,0.408-0.106,0.613-0.159C108.115,56.827,109.044,56.532,109.973,56.238z"/>
		<path fill-rule="evenodd" clip-rule="evenodd" fill="#525252" d="M73.911,56.8c0.03-0.265,0.065-0.528,0.106-0.791
			c9.365-0.003,18.729-0.031,28.094,0.015c1.736,0.009,3.669-0.572,5.074,1.099c0.001,0-0.177-0.121-0.177-0.121
			c-1.381,1.084-3.015,1.357-4.692,1.372c-7.966,0.07-15.933,0.076-23.899-0.006C76.77,58.35,75.048,58.367,73.911,56.8z"/>
		<path fill-rule="evenodd" clip-rule="evenodd" fill="#171717" d="M108.979,67.029c0.021,2.649,0.041,5.299,0.062,7.947
			c-0.021,0.352-0.042,0.703-0.064,1.055c-8.232-2.383-16.599-2.467-25.349-1.561c2.221-2.991,6.264-3.63,8.166-6.727
			c0.682-2.054,2.236-2.15,3.998-1.783c0.395,0.019,0.79,0.037,1.185,0.056c2.657,0.993,5.11-0.692,7.732-0.598
			C106.416,65.481,108.043,65.164,108.979,67.029z"/>
		<path fill-rule="evenodd" clip-rule="evenodd" fill="#FCFCFC" d="M79.062,82.966c3.842-2.021,7.968-0.479,11.934-0.953
			c0.331,0.214,0.441,0.427,0.33,0.64c-0.11,0.212-0.221,0.318-0.333,0.318C87.016,82.969,83.038,82.968,79.062,82.966z"/>
		<path fill-rule="evenodd" clip-rule="evenodd" fill="#F8F8F8" d="M90.992,82.971c0.005-0.319,0.006-0.639,0.003-0.958
			c2.645,0.421,5.511-0.993,7.97,0.961c-0.652,0.016-1.304,0.031-1.955,0.047C95.004,83.004,92.998,82.987,90.992,82.971z"/>
		<path fill-rule="evenodd" clip-rule="evenodd" fill="#AEAEAE" d="M69.001,49.999c2.046,3.136,0.55,6.629,0.999,9.926
			c0.276,2.036-0.677,4.248,0.872,6.103c0.814,5.315,1.292,10.634,0.154,15.967c-1.062,2.132,1.16,2.106,1.974,3.008
			c-0.001,0.335-0.001,0.671-0.002,1.007c-2.896,1.196-3.962-0.81-5.011-2.856c-0.824-9.837-0.257-19.691-0.32-29.54
			C67.658,52.261,68.066,51.022,69.001,49.999z"/>
		<path fill-rule="evenodd" clip-rule="evenodd" fill="#E5E5E5" d="M71.026,81.994c-0.051-5.322-0.102-10.645-0.153-15.967
			c0.962-3.61-1.543-7.746,1.669-11.017c-0.555,8.022-0.98,16.042,0.651,24.006c-0.108,0.335-0.217,0.67-0.325,1.005
			c-0.432,0.575-0.113,1.495-0.881,1.916c0,0,0.011,0.137,0.011,0.138C71.675,82.043,71.351,82.016,71.026,81.994z"/>
		<path fill-rule="evenodd" clip-rule="evenodd" fill="#959595" d="M69.004,83.986c1.365,0.607,2.257,2.15,3.994,2.022
			c0.633,1.011,2.131,1.436,2.003,2.96c-0.33,0.044-0.659,0.089-0.989,0.134c-1.354,1.643-3.186,1.967-5.171,1.885
			c-2.313-0.92-1.492-3.256-2.223-4.901c-0.261-0.654-0.267-1.303,0.014-1.95c0.298-0.371,0.685-0.59,1.147-0.682
			C68.253,83.481,68.664,83.652,69.004,83.986z"/>
		<path fill-rule="evenodd" clip-rule="evenodd" fill="#E4E4E4" d="M71.987,81.938c0.293-0.639,0.587-1.277,0.881-1.916
			c0.98,1.828,2.835,0.494,4.141,1.145c-0.001,0.608-0.002,1.217-0.003,1.825C75.333,82.64,73.66,82.289,71.987,81.938z"/>
		<path fill-rule="evenodd" clip-rule="evenodd" fill="#C7C7C7" d="M38.108,67.934c0.624-0.985,1.247-1.971,1.871-2.956
			c1.215,0.53,1.622,1.513,1.55,2.765c-0.324,5.115-0.093,10.237-0.14,15.359c-0.056,2.065,0.173,4.198-1.409,5.896
			c-0.004,1.312-0.008,2.626-0.012,3.938c-1.791,2.515-0.491,5.4-0.966,8.074c-2.108-4.555-0.565-9.374-0.998-14.053
			c-0.182-1.97-0.096-3.965-0.132-5.949c-0.579-4.303-0.562-8.605-0.01-12.909L38.108,67.934z"/>
		<path fill-rule="evenodd" clip-rule="evenodd" fill="#E6E7E8" d="M43.137,75.62c2.669,1.795,3.398,4.342,2.861,7.379
			c-1.376,1.197-2.906,1.301-4.544,0.642c-0.497-0.277-0.797-0.699-0.901-1.259c0.722-2.569-1.747-5.816,1.655-7.82
			C42.824,74.645,43.134,74.998,43.137,75.62z"/>
		<path fill-rule="evenodd" clip-rule="evenodd" fill="#ECECED" d="M41.003,92.998c-0.002-1.332-0.004-2.664-0.006-3.996
			c-0.629-0.817-0.569-1.609,0.088-2.38c1.727-1.049,3.36-0.864,4.911,0.376c0,2.333,0,4.666-0.001,6.999
			C43.992,95.363,42.494,94.201,41.003,92.998z"/>
		<path fill-rule="evenodd" clip-rule="evenodd" fill="#4B4B4B" d="M43.137,75.62c0.05-0.301-0.066-0.508-0.351-0.619
			c-2.976-4.407-2.364-6.081,2.475-6.775c1.155,0.379,1.782,1.28,2.277,2.312c0.419,1.013,0.543,2.06,0.311,3.141
			c-0.147,0.517-0.434,0.944-0.853,1.284C45.709,75.183,44.423,75.401,43.137,75.62z"/>
		<path fill-rule="evenodd" clip-rule="evenodd" fill="#E8E9E9" d="M45.997,86.998c-1.665,0-3.33,0-4.995,0
			C40.286,85.666,40.29,84.333,41,83c1.666,0,3.332,0,4.998-0.001C45.998,84.332,45.998,85.665,45.997,86.998z"/>
		<path fill-rule="evenodd" clip-rule="evenodd" fill="#BFBFBF" d="M46.996,74.963c0.012-0.309,0.071-0.607,0.175-0.897
			c2.474,0.392,1.899,2.497,2.287,4.062c0.02,1.233,0.085,2.468-0.059,3.699c-0.708,1.093,0.037,3.268-2.328,3.124
			C47.046,81.621,47.021,78.292,46.996,74.963z"/>
		<path fill-rule="evenodd" clip-rule="evenodd" fill="#CAC9CA" d="M47.071,84.95c0.615-0.991,1.229-1.981,1.844-2.973
			c0.915,1.311,0.712,2.665,0.159,4.033c-0.048,0.991-0.097,1.982-0.146,2.974c-0.814,0.485,0.064,2.592-1.896,1.979
			C47.045,88.959,47.058,86.954,47.071,84.95z"/>
		<path fill-rule="evenodd" clip-rule="evenodd" fill="#DCDBDB" d="M47.032,90.964c0.632-0.66,1.265-1.32,1.896-1.979
			c0.008,1.343,0.017,2.686,0.026,4.028c-1.135,1.519,0.187,3.496-0.938,5.017c0.011,0.324,0.008,0.648-0.009,0.973
			c-0.323-0.001-0.646-0.005-0.967-0.013C47.038,96.314,47.035,93.639,47.032,90.964z"/>
		<path fill-rule="evenodd" clip-rule="evenodd" fill="#EFEFF0" d="M41.003,92.998c1.665,0.333,3.329,0.666,4.993,0.999
			c0,0.667,0.001,1.334,0.001,2.002c-1.988,1.283-3.684,1.104-4.994-1C41.003,94.332,41.003,93.665,41.003,92.998z"/>
		<path fill-rule="evenodd" clip-rule="evenodd" fill="#F0F1F2" d="M41.003,94.999c1.541,0.953,3.241,1.109,4.995,1
			C43.645,99.103,41.988,98.732,41.003,94.999z"/>
		<path fill-rule="evenodd" clip-rule="evenodd" fill="#F0F1F2" d="M41,83c0.001,1.333,0.001,2.665,0.002,3.998
			c-0.001,0.668-0.003,1.336-0.005,2.004C40.659,89,40.32,88.999,39.98,88.998c0.002-2.001,0.004-4.001,0.006-6.002
			C40.326,82.536,40.664,82.559,41,83L41,83z"/>
		<path fill-rule="evenodd" clip-rule="evenodd" fill="#D0CFD0" d="M49.019,65.024c0.64,0.339,1.281,0.677,1.921,1.015
			c0.053,1.981,0.108,3.962,0.163,5.942c-0.067,2.014-0.134,4.028-0.203,6.042c-0.292-0.019-0.583-0.032-0.874-0.04
			c-0.17-0.163-0.341-0.326-0.512-0.488c-0.898-2.219-0.376-4.672-1.164-6.911c-0.15-0.465-0.255-0.937-0.338-1.417
			c-0.206-1.516-0.186-2.979,0.992-4.164L49.019,65.024z"/>
		<path fill-rule="evenodd" clip-rule="evenodd" fill="#F6F6F6" d="M49.074,86.011c-0.053-1.345-0.105-2.688-0.158-4.032
			c-0.005-1.354-0.009-2.707-0.013-4.06c0.188-0.102,0.376-0.202,0.564-0.303c0.165,0.135,0.331,0.271,0.496,0.405
			c0,0,0.063-0.037,0.063-0.038c-0.024,2.676-0.05,5.352-0.075,8.027c0,0-0.439-0.005-0.439-0.005L49.074,86.011z"/>
		<path fill-rule="evenodd" clip-rule="evenodd" fill="#ECEDED" d="M31.063,84.982c1.112-0.685,0.817-2.012,1.443-3.214
			c0.139,3.068,2.596,3.315,4.481,4.222c0,2.332,0,4.665,0,6.998c-0.943,0.556-2.328,0.592-2.735-0.073
			c-1.705-2.784-1.58-0.745-1.932,0.579c-0.126,0.475-0.729,0.548-1.235,0.48c-0.055-2.665-0.109-5.329-0.165-7.993
			C30.968,85.647,31.015,85.315,31.063,84.982z"/>
		<path fill-rule="evenodd" clip-rule="evenodd" fill="#F1F1F2" d="M31.085,93.975c1.284-4.416,3.759-1.709,5.902-0.986
			c-0.006,3.649-0.006,3.649-5.007,7.033C30.181,98.228,31.276,96.006,31.085,93.975z"/>
		<path fill-rule="evenodd" clip-rule="evenodd" fill="#F6F6F7" d="M37.862,68.1c0.004,4.303,0.008,8.606,0.011,12.909
			c-0.001,0-0.43-0.004-0.43-0.004l-0.429,0.002c-0.012-3.006-0.023-6.012-0.035-9.017C37.161,70.667,36.534,69.161,37.862,68.1z"/>
		<path fill-rule="evenodd" clip-rule="evenodd" fill="#E0E0E0" d="M48.017,98.029c0.206-1.692-0.66-3.585,0.938-5.017
			C48.798,94.714,49.599,96.595,48.017,98.029z"/>
		<path fill-rule="evenodd" clip-rule="evenodd" fill="#DBDCDE" d="M76.999,99.997c0.333,0.001,0.666,0.003,0.999,0.004
			c0.636,0.792,0.325,2.412,1.069,2.624c5.587,1.594,2.833,4.799,1.648,7.734c-1.461,1.683-3.391,2.147-5.189,1.06
			c-2.084-1.26-1.173-3.431-0.801-5.281c0.189-0.937,0.814-1.757,0.882-2.749c0.036-0.504,0.126-0.999,0.247-1.489
			C76.046,101.152,76.364,100.478,76.999,99.997z"/>
		<path fill-rule="evenodd" clip-rule="evenodd" fill="#D6D7D8" d="M79.999,110.011c-0.39-2.036,1.062-3.154,3.552-4.792
			c-4.832,0.076-5.979-1.978-5.553-5.218c1.657,2.913,4.893,3.415,7.846,4.514c-3.46,3.715-3.46,3.715-0.672,4.545
			c-0.145,0.588-0.29,1.177-0.437,1.765c-0.881,0.07-1.761,0.142-2.64,0.212C80.894,111.723,80.532,110.69,79.999,110.011z"/>
		<path fill-rule="evenodd" clip-rule="evenodd" fill="#D6D7D8" d="M76.999,99.997c-0.007,0.689-0.015,1.38-0.022,2.069
			c-0.863,0.488-1.647,0.009-2.456-0.186c-1.441-0.416-3.036,0.363-4.416-0.551c-0.73-0.803-0.415-1.648-0.111-2.495
			c0.187-0.397,0.437-0.754,0.735-1.075c0.851-0.646,1.9-0.894,2.823-1.402c0.737-0.358,1.462-0.812,2.335-0.423
			c0.369,0.022,0.737,0.046,1.106,0.068C76.967,97.334,76.029,98.667,76.999,99.997z"/>
		<path fill-rule="evenodd" clip-rule="evenodd" fill="#CFD0D2" d="M68.929,90.789c1.295-1.766,3.321-1.327,5.083-1.687
			c-0.175,1.406,0.317,2.643,0.974,3.837c-0.384,0.583-0.964,0.853-1.609,1.019c-1.439,0.201-2.889,0.372-4.118,1.272
			c-0.42,0.148-0.813,0.094-1.18-0.156c-2.57-1.281-5.443-0.287-8.079-1.075c-1.01-3.627-0.338-7.31-0.358-10.97
			c0.791-5.909,0.188-11.846,0.349-17.768c0.066-2.466-0.023-4.936,1.007-7.26c0.323-0.006,0.646-0.014,0.97-0.024
			c0.525-0.422,0.979-0.356,1.364,0.194c0.199,0.521,0.264,1.062,0.202,1.616c-0.182,7.202-0.496,14.409,0.192,21.598
			c0.265,0.425,0.495,0.872,0.708,1.325c0.394,0.913,0.495,1.869,0.361,2.854c-0.244,1.512-1.02,3.033,0.1,4.504
			c0.996,0.957,2.256,0.588,3.422,0.674C68.521,90.756,68.725,90.772,68.929,90.789z"/>
		<path fill-rule="evenodd" clip-rule="evenodd" fill="#E6E6E6" d="M68.078,95.074c0.308-0.036,0.617-0.063,0.927-0.082
			c0.77-1.896,2.841-1.087,4.097-1.971c0.628-0.026,1.256-0.054,1.884-0.081c1.213,0.724,0.957,1.89,0.902,2.995
			c-0.541,0.343-1.08,0.687-1.619,1.03c-1.364,0-2.657,0.312-3.889,0.896c-1.015,0.664-2.073,1.005-3.254,0.451
			c-0.257-0.236-0.368-0.494-0.336-0.774c0.032-0.291,0.085-0.436,0.155-0.436C67.323,96.427,67.7,95.75,68.078,95.074z"/>
		<path fill-rule="evenodd" clip-rule="evenodd" fill="#818385" d="M82.013,42.004c0.681,0.06,1.362,0.118,2.044,0.178
			c0.438,0.144,0.753,0.429,0.963,0.835c-3.953,1.026-7.512,4.478-12.041,1.957c0.343-0.346,0.687-0.692,1.03-1.039
			C76.857,44.04,79.533,43.43,82.013,42.004z"/>
		<path fill-rule="evenodd" clip-rule="evenodd" fill="#7B7D7F" d="M85.02,43.017c-0.321-0.278-0.643-0.558-0.964-0.835
			c0.688-0.37,1.376-0.741,2.064-1.111c1.604-0.085,3.209-0.169,4.812-0.255c0.022,0.385,0.045,0.77,0.066,1.154
			C89.006,42.318,87.013,42.668,85.02,43.017z"/>
		<path fill-rule="evenodd" clip-rule="evenodd" fill="#E6E6E7" d="M79.999,110.011c0.698,0.342,1.397,0.684,2.096,1.025
			c-1.734,1.429-3.778,1.945-5.971,2.019c-0.922-0.359-1.787-0.507-2.852-0.322c-2.557,0.442-5.558,1.095-3.507-3.456
			c0.37-0.822-0.931-1.13-1.749-1.27c-0.501-1.57,0.825-1.902,1.708-2.537c1.179-0.533,2.54-0.627,3.593-1.479
			c1.097-0.739,2.165-1.587,3.625-1.009c0.27,1.435-1.008,2.511-1.094,3.572c-0.104,1.292-1.398,3.082,0.11,4.068
			C77.173,111.416,78.825,111.365,79.999,110.011z"/>
		<path fill-rule="evenodd" clip-rule="evenodd" fill="#CACBCC" d="M62.755,57.949l-0.393,0.033c0,0-0.394-0.004-0.395-0.005
			c0.014-0.326,0.024-0.653,0.028-0.979c2.477-0.317,1.849-2.245,2.023-3.808c0.23-2.065-0.79-4.321,0.905-6.169
			c0.339,0.674,0.679,1.347,1.019,2.02c1.889,2.716-0.145,5.678,0.539,8.472c-0.271,1.087-0.995,1.651-2.08,1.796
			C63.598,59.165,63.322,58.381,62.755,57.949z"/>
		<path fill-rule="evenodd" clip-rule="evenodd" fill="#CCCDCF" d="M60.004,82.991C60.002,86.66,60.001,90.33,60,93.999
			c-1.631-1.467-0.958-3.415-0.969-5.156C58.968,79.229,59,69.614,59,60c0.326,0.002,0.652,0.004,0.979,0.007
			C60.835,67.668,60.785,75.329,60.004,82.991z"/>
		<path fill-rule="evenodd" clip-rule="evenodd" fill="#DBDCDD" d="M58.004,103c0.004-1.669,0.008-3.337,0.013-5.006
			c0.328,0.335,0.656,0.67,0.984,1.005c2.44,0.195,4.998-0.356,7.24,1.13c0.949,0.562,1.501,1.391,1.661,2.481
			c0.069,0.796-0.078,1.544-0.504,2.229c-0.393,0.435-0.848,0.512-1.364,0.233C63.604,103.424,60.859,102.996,58.004,103z"/>
		<path fill-rule="evenodd" clip-rule="evenodd" fill="#D6D7D8" d="M65.999,101c-2.22-1.063-4.942-0.367-6.999-2.001
			c1.375-4.15,3.948-3.954,7.024-1.938c0.315,0.296,0.486,0.662,0.534,1.09c0.181,0.387,0.271,0.794,0.278,1.221
			C66.783,100.029,66.524,100.584,65.999,101z"/>
		<path fill-rule="evenodd" clip-rule="evenodd" fill="#757778" d="M66.072,97.93c-0.051-0.288-0.066-0.578-0.048-0.869
			c0.312-0.088,0.619-0.074,0.921,0.042c0.064,0.299,0.14,0.594,0.228,0.887C66.787,98.315,66.42,98.296,66.072,97.93z"/>
		<path fill-rule="evenodd" clip-rule="evenodd" fill="#A4A4A4" d="M66.033,105.072c0.327-0.061,0.657-0.101,0.989-0.118
			c1.055-0.193,2.107-0.694,3.167-0.018c0.239,0.418,0.19,0.799-0.146,1.144c-0.676,0.643-1.352,1.284-2.026,1.927
			c-1.404,0.081-2.027-0.686-2.157-1.987C65.946,105.709,66.005,105.394,66.033,105.072z"/>
		<path fill-rule="evenodd" clip-rule="evenodd" fill="#CDCECF" d="M40.995,66.982c-0.338-0.668-0.677-1.336-1.016-2.005
			c0.016-0.652,0.031-1.306,0.047-1.958c2.154,1.361,4.57,0.903,6.907,0.995c0.057,0.318,0.104,0.638,0.138,0.96
			c0.374,1.326-0.334,2.097-1.38,2.696C44.047,67.981,42.385,68.403,40.995,66.982z"/>
		<path fill-rule="evenodd" clip-rule="evenodd" fill="#AFAEAE" d="M46.106,66.865c0.321-0.63,0.642-1.26,0.964-1.891
			c0.645,0.01,1.289,0.019,1.934,0.028c-0.044,1.66-0.088,3.321-0.132,4.981c-0.364,0.245-0.737,0.26-1.12,0.046
			c-0.577-0.589-0.734-1.422-1.201-2.076C46.325,67.623,46.175,67.261,46.106,66.865z"/>
		<path fill-rule="evenodd" clip-rule="evenodd" fill="#D9DADC" d="M60.004,82.991c-0.008-7.661-0.017-15.323-0.025-22.984
			c0.04-0.82,0.201-1.579,1.018-2.005c0.003,6.781,0.037,13.562-0.015,20.343C60.97,79.931,61.534,81.7,60.004,82.991z"/>
		<path fill-rule="evenodd" clip-rule="evenodd" fill="#727272" d="M95.793,65.961c-1.332,0.595-2.664,1.189-3.997,1.784
			c-3.556-0.933-7.186-0.74-10.805-0.74c-8.199,0-6.626,0.421-7.174-6.876c0.695-1.946,2.341-2.091,4.034-2.102
			c6.911-0.042,13.823-0.06,20.733,0.019c1.233,0.014,2.867-0.277,3.281,1.375c0.33,1.317-0.999,1.917-1.854,2.646
			C99.226,64.037,96.486,63.891,95.793,65.961z"/>
		<path fill-rule="evenodd" clip-rule="evenodd" fill="#898989" d="M73.911,56.8c11.032,0.067,22.065,0.134,33.098,0.201
			c-0.403,2.234-2.296,2.539-4.001,3.085c-1.079-2.128-3.071-1.585-4.824-1.587c-7.461-0.012-14.922-0.069-22.381,0.033
			c-0.995,0.014-1.988,0.215-2.826-0.526C73.288,57.604,73.6,57.201,73.911,56.8z"/>
		<path fill-rule="evenodd" clip-rule="evenodd" fill="#7D7D7D" d="M72.977,58.006c9.043-0.002,18.087-0.053,27.129,0.054
			c1.146,0.014,3.86-1.347,2.902,2.026c-0.585,1.286-1.675,1.81-2.996,1.981c-0.105-1.037,2.476-2.883,0.317-2.856
			c-8.833,0.109-17.76-1.513-26.511,0.917C73.026,59.623,72.879,58.863,72.977,58.006z"/>
		<path fill-rule="evenodd" clip-rule="evenodd" fill="#202020" d="M73.809,71.064c0,1.24,0,2.479,0,3.823
			C72.288,73.744,73.639,72.389,73.809,71.064z"/>
		<path fill-rule="evenodd" clip-rule="evenodd" fill="#A1A2A2" d="M65.954,57.788c-2.273-2.913,0.028-5.832-0.012-8.747
			c0.678-0.021,1.355-0.042,2.032-0.063c0.032,0.33,0.048,0.662,0.048,0.994c0.759,11.335,0.784,22.67-0.009,34.004
			c-0.288,0.013-0.576,0.029-0.864,0.05c-0.509-0.357-0.875-0.825-1.105-1.4c-0.956-7.693-0.114-15.431-0.512-23.14
			C65.498,58.876,65.64,58.311,65.954,57.788z"/>
		<path fill-rule="evenodd" clip-rule="evenodd" fill="#A9A9A9" d="M68.014,83.976c0.003-11.334,0.006-22.669,0.009-34.003
			c0.326,0.015,0.652,0.023,0.979,0.026c0.001,11.329,0.002,22.658,0.003,33.987l-0.495,0.003L68.014,83.976z"/>
		<path fill-rule="evenodd" clip-rule="evenodd" fill="#090909" d="M108.979,67.029c-2.321-1.7-4.644,0.494-6.994-0.003
			c-1.663-0.353-3.581,0.567-5.008-1.01c2.722-0.354,4.937-2.423,7.929-2.078C107.038,64.185,108.834,64.383,108.979,67.029z"/>
		<path fill-rule="evenodd" clip-rule="evenodd" fill="#8B8989" d="M66.956,85.983c0.729,0.51,3.632-0.375,1.332,2.079
			c-1.148,1.226,1.263,1.622,0.641,2.728c0-0.001,0.044,0.373,0.044,0.373c-1.566,0.358-3.159,0.891-4.428-0.684
			c-0.551-1.02-0.533-2.075-0.21-3.154C64.912,86.302,65.666,85.619,66.956,85.983z"/>
		<path fill-rule="evenodd" clip-rule="evenodd" fill="#EBEBEC" d="M66.956,85.983c-0.684,0.318-1.366,0.637-2.05,0.955
			c-0.869,0.249-1.324,0.081-0.937-0.933c0.029-0.965,0.058-1.929,0.087-2.893c0.113-0.162,0.226-0.323,0.338-0.486
			c0.536-0.312,1.108-0.389,1.712-0.275c0.372,0.155,0.654,0.414,0.857,0.761c0.018,0.313,0.079,0.617,0.185,0.913
			C67.085,84.678,67.021,85.33,66.956,85.983z"/>
		<path fill-rule="evenodd" clip-rule="evenodd" fill="#E9EAEB" d="M46.106,66.865c0.289,0.057,0.579,0.104,0.871,0.143
			c0.673,1.194,0.824,2.124-1.033,2.036c-5.3-0.267-4.277,2.82-3.159,5.957c-3.496,2.019-1.022,5.371-1.787,8
			c-0.337-0.001-0.675-0.003-1.012-0.005c0.512-5.326-1.168-10.791,1.008-16.014C42.698,66.943,44.402,66.904,46.106,66.865z"/>
		<path fill-rule="evenodd" clip-rule="evenodd" fill="#B9B8B8" d="M48.046,69.965c0.276,0.015,0.551,0.021,0.826,0.02
			c-0.001,0,0.237,0.09,0.237,0.09c0.602,2.658,0.607,5.316-0.003,7.975c0,0-0.203-0.129-0.203-0.13
			c-1.508-0.867-0.323-2.943-1.732-3.854c-0.064-1.019-0.129-2.037-0.193-3.056C47.098,70.42,47.452,70.07,48.046,69.965z"/>
		<path fill-rule="evenodd" clip-rule="evenodd" fill="#BEBDBE" d="M48.046,69.965c-0.356,0.349-0.713,0.696-1.069,1.045
			c-0.345-0.655-0.689-1.311-1.033-1.966c0.914-0.391,1.069-1.165,1.033-2.036C48.171,67.69,47.965,68.88,48.046,69.965z"/>
		<path fill-rule="evenodd" clip-rule="evenodd" fill="#EDEDED" d="M49.106,78.049c0-2.658,0.001-5.317,0.002-7.976
			c1.78,2.489,0.537,5.303,0.854,7.948c0,0-0.429,0-0.429,0L49.106,78.049z"/>
		<path fill-rule="evenodd" clip-rule="evenodd" fill="#EFEFEF" d="M69.958,105.269c-1.002,0.107-2.14,1.498-2.936-0.314
			c0.019-0.631,0.037-1.263,0.057-1.894c0.449-0.815,0.963-1.542,2.046-1.483c2.064,0.849,3.845-0.876,5.84-0.647
			c0.671,0.379,1.342,0.757,2.012,1.136c-0.011,0.307-0.021,0.611-0.033,0.917c-0.975,0.654-1.948,1.31-2.922,1.965
			C72.677,105.187,71.353,105.674,69.958,105.269z"/>
		<path fill-rule="evenodd" clip-rule="evenodd" fill="#DFE0E2" d="M68.975,102.021c-0.633,0.347-1.266,0.692-1.896,1.038
			c-0.096-0.824-0.253-1.617-1.079-2.06c-0.001-0.658-0.003-1.316-0.004-1.975c1.635-0.52,3.288-0.568,4.957-0.185
			c-0.32,0.719-0.64,1.438-0.96,2.156C69.883,101.567,69.551,101.916,68.975,102.021z"/>
		<path fill-rule="evenodd" clip-rule="evenodd" fill="#D5D5D7" d="M68.975,102.021c0.339-0.341,0.679-0.683,1.018-1.024
			c1.667,0.688,3.294-1.724,4.974-0.066C73.009,101.518,71.298,103.448,68.975,102.021z"/>
		<path fill-rule="evenodd" clip-rule="evenodd" fill="#ADADAD" d="M70.952,98.841c-1.626,0.761-3.289,0.546-4.957,0.185
			c0.025-0.365,0.051-0.73,0.077-1.096c0.366,0.02,0.733,0.039,1.101,0.06c0.979-0.268,1.959-0.534,2.938-0.802
			c0.416,0.154,0.72,0.432,0.91,0.832C70.978,98.292,70.955,98.565,70.952,98.841z"/>
		<path fill-rule="evenodd" clip-rule="evenodd" fill="#959595" d="M71.021,98.02c-0.304-0.277-0.607-0.555-0.911-0.832
			c1.385-0.091,2.667-2.092,4.156-0.222C73.387,97.935,72.19,97.936,71.021,98.02z"/>
		<path fill-rule="evenodd" clip-rule="evenodd" fill="#7F7F7F" d="M62.755,57.949c0.47,0.252,0.941,0.504,1.411,0.756
			c1.909,8.091,2.2,16.167-0.208,24.22l0.098,0.188c-0.369-0.083-0.737-0.165-1.105-0.248c-0.704-7.993-0.742-15.985,0.028-23.977
			C62.984,58.557,62.909,58.243,62.755,57.949z"/>
		<path fill-rule="evenodd" clip-rule="evenodd" fill="#646464" d="M62.979,58.889c-0.009,7.992-0.019,15.984-0.028,23.977
			C61.447,74.871,61.241,66.879,62.979,58.889z"/>
		<path fill-rule="evenodd" clip-rule="evenodd" fill="#D5D5D7" d="M63.97,86.006c0.312,0.311,0.625,0.622,0.938,0.933
			c-0.015,1.042-0.029,2.085-0.043,3.128c-0.15,0.447-0.451,0.754-0.882,0.938C62.523,89.342,62.529,87.676,63.97,86.006z"/>
		<path fill-rule="evenodd" clip-rule="evenodd" fill="#EBECEC" d="M63.982,91.004c0.294-0.312,0.588-0.625,0.882-0.938
			c1.073,1.474,2.753,0.679,4.108,1.096C67.27,92.35,65.599,92.538,63.982,91.004z"/>
		<path fill-rule="evenodd" clip-rule="evenodd" fill="#C6C6C6" d="M73.102,93.021c-1.365,0.657-2.731,1.314-4.097,1.971
			C69.362,92.239,71.517,93.222,73.102,93.021z"/>
		<path fill-rule="evenodd" clip-rule="evenodd" fill="#B0AFAF" d="M69.958,105.269c1.319-0.544,2.641-1.073,4.062-0.321
			c-1.034,1.403-2.598,0.947-3.979,1.132C70.004,105.811,69.976,105.54,69.958,105.269z"/>
		<path fill-rule="evenodd" clip-rule="evenodd" fill="#939392" d="M63.958,82.925c0.069-8.071,0.137-16.144,0.207-24.218
			c0.598-0.307,1.193-0.61,1.789-0.917c0.016,0.401,0.031,0.806,0.048,1.21c0.343,0.492,0.396,1.014,0.162,1.565
			c-0.261,6.646-0.315,13.291,0.033,19.936c0.268,0.811,0.402,1.609-0.22,2.337C65.305,82.867,64.632,82.896,63.958,82.925z"/>
		<path fill-rule="evenodd" clip-rule="evenodd" fill="#9D9D9D" d="M65.978,82.838c0.008-0.612,0.015-1.225,0.021-1.836
			C65.195,74,65.201,66.998,65.995,59.995c0.001-0.331,0.003-0.663,0.007-0.995c2.127,4.074,0.664,8.435,0.941,12.651
			c0.25,3.805,0.032,7.639,0.021,11.461C66.635,83.021,66.307,82.93,65.978,82.838z"/>
		<path fill-rule="evenodd" clip-rule="evenodd" fill="#9A9A9A" d="M65.995,59.995c0.001,7.003,0.003,14.005,0.004,21.007
			C64.381,74,64.384,66.998,65.995,59.995z"/>
	</g>
</g>
</svg>
